<svg width="160" height="40" viewBox="0 0 160 40" fill="none" xmlns="http://www.w3.org/2000/svg">
<rect width="160" height="40" rx="20" fill="#1D3599"/>
<path d="M59.064 24.224V26H52.288V14.432H54.44V24.224H59.064ZM72.0263 20.216C72.0263 21.064 71.8849 21.8507 71.6023 22.576C71.3249 23.296 70.9303 23.92 70.4183 24.448C69.9063 24.976 69.2903 25.3893 68.5703 25.688C67.8503 25.9813 67.0503 26.128 66.1703 26.128C65.2956 26.128 64.4983 25.9813 63.7783 25.688C63.0583 25.3893 62.4396 24.976 61.9223 24.448C61.4103 23.92 61.0129 23.296 60.7303 22.576C60.4476 21.8507 60.3063 21.064 60.3063 20.216C60.3063 19.368 60.4476 18.584 60.7303 17.864C61.0129 17.1387 61.4103 16.512 61.9223 15.984C62.4396 15.456 63.0583 15.0453 63.7783 14.752C64.4983 14.4533 65.2956 14.304 66.1703 14.304C66.7569 14.304 67.3089 14.3733 67.8263 14.512C68.3436 14.6453 68.8183 14.8373 69.2503 15.088C69.6823 15.3333 70.0689 15.6347 70.4103 15.992C70.7569 16.344 71.0503 16.7387 71.2903 17.176C71.5303 17.6133 71.7116 18.088 71.8343 18.6C71.9623 19.112 72.0263 19.6507 72.0263 20.216ZM69.8263 20.216C69.8263 19.5813 69.7409 19.0133 69.5703 18.512C69.3996 18.0053 69.1569 17.576 68.8423 17.224C68.5276 16.872 68.1436 16.6027 67.6903 16.416C67.2423 16.2293 66.7356 16.136 66.1703 16.136C65.6049 16.136 65.0956 16.2293 64.6423 16.416C64.1943 16.6027 63.8103 16.872 63.4903 17.224C63.1756 17.576 62.9329 18.0053 62.7623 18.512C62.5916 19.0133 62.5063 19.5813 62.5063 20.216C62.5063 20.8507 62.5916 21.4213 62.7623 21.928C62.9329 22.4293 63.1756 22.856 63.4903 23.208C63.8103 23.5547 64.1943 23.8213 64.6423 24.008C65.0956 24.1947 65.6049 24.288 66.1703 24.288C66.7356 24.288 67.2423 24.1947 67.6903 24.008C68.1436 23.8213 68.5276 23.5547 68.8423 23.208C69.1569 22.856 69.3996 22.4293 69.5703 21.928C69.7409 21.4213 69.8263 20.8507 69.8263 20.216ZM84.2521 20.2V24.88C83.6655 25.312 83.0388 25.6293 82.3721 25.832C81.7108 26.0293 81.0015 26.128 80.2441 26.128C79.3001 26.128 78.4441 25.9813 77.6761 25.688C76.9135 25.3947 76.2601 24.9867 75.7161 24.464C75.1775 23.9413 74.7615 23.3173 74.4681 22.592C74.1748 21.8667 74.0281 21.0747 74.0281 20.216C74.0281 19.3467 74.1695 18.5493 74.4521 17.824C74.7348 17.0987 75.1348 16.4747 75.6521 15.952C76.1748 15.4293 76.8068 15.024 77.5481 14.736C78.2895 14.448 79.1215 14.304 80.0441 14.304C80.5135 14.304 80.9508 14.3413 81.3561 14.416C81.7668 14.4907 82.1455 14.5947 82.4921 14.728C82.8441 14.856 83.1641 15.0133 83.4521 15.2C83.7401 15.3867 84.0041 15.592 84.2441 15.816L83.6281 16.792C83.5321 16.9467 83.4068 17.0427 83.2521 17.08C83.0975 17.112 82.9295 17.072 82.7481 16.96C82.5721 16.8587 82.3961 16.7573 82.2201 16.656C82.0441 16.5547 81.8468 16.4667 81.6281 16.392C81.4148 16.3173 81.1721 16.256 80.9001 16.208C80.6335 16.16 80.3241 16.136 79.9721 16.136C79.4015 16.136 78.8841 16.232 78.4201 16.424C77.9615 16.616 77.5695 16.8907 77.2441 17.248C76.9188 17.6053 76.6681 18.0347 76.4921 18.536C76.3161 19.0373 76.2281 19.5973 76.2281 20.216C76.2281 20.8773 76.3215 21.4693 76.5081 21.992C76.7001 22.5093 76.9668 22.9493 77.3081 23.312C77.6548 23.6693 78.0708 23.944 78.5561 24.136C79.0415 24.3227 79.5828 24.416 80.1801 24.416C80.6068 24.416 80.9881 24.3707 81.3241 24.28C81.6601 24.1893 81.9881 24.0667 82.3081 23.912V21.816H80.8521C80.7135 21.816 80.6041 21.7787 80.5241 21.704C80.4495 21.624 80.4121 21.528 80.4121 21.416V20.2H84.2521ZM89.2855 26H87.1255V14.432H89.2855V26ZM102.428 14.432V26H101.324C101.153 26 101.009 25.9733 100.892 25.92C100.78 25.8613 100.67 25.7653 100.564 25.632L94.5235 17.92C94.5555 18.272 94.5715 18.5973 94.5715 18.896V26H92.6755V14.432H93.8035C93.8942 14.432 93.9715 14.4373 94.0355 14.448C94.1048 14.4533 94.1635 14.4693 94.2115 14.496C94.2648 14.5173 94.3155 14.552 94.3635 14.6C94.4115 14.6427 94.4648 14.7013 94.5235 14.776L100.588 22.52C100.572 22.3333 100.558 22.1493 100.548 21.968C100.537 21.7867 100.532 21.6187 100.532 21.464V14.432H102.428Z" fill="white"/>
</svg>
