<svg width="324" height="321" viewBox="0 0 324 321" fill="none" xmlns="http://www.w3.org/2000/svg">
<g clip-path="url(#clip0_12_535)">
<rect x="2" y="2" width="320" height="317" rx="12" fill="white"/>
<path d="M42.0756 41.0973L37.4702 36.4919L42.0756 31.8865" stroke="#1D3599" stroke-width="1.53514" stroke-linecap="round" stroke-linejoin="round"/>
<path d="M115.364 33.0354V36.3206H119.524V37.9709H115.364V42.4919H113.291V31.3929H120.292V33.0354H115.364ZM126.071 37.6485C126.071 37.4029 126.035 37.1726 125.964 36.9577C125.897 36.7377 125.795 36.5458 125.657 36.382C125.518 36.2183 125.342 36.0904 125.127 35.9983C124.917 35.901 124.672 35.8524 124.39 35.8524C123.843 35.8524 123.41 36.0085 123.093 36.3206C122.781 36.6328 122.581 37.0754 122.494 37.6485H126.071ZM122.456 38.7922C122.487 39.1965 122.558 39.547 122.671 39.8438C122.783 40.1354 122.932 40.3785 123.116 40.573C123.3 40.7623 123.518 40.9056 123.768 41.0028C124.024 41.0949 124.306 41.141 124.613 41.141C124.92 41.141 125.183 41.1051 125.403 41.0335C125.629 40.9619 125.823 40.8825 125.987 40.7956C126.156 40.7086 126.301 40.6293 126.424 40.5576C126.552 40.486 126.675 40.4502 126.793 40.4502C126.951 40.4502 127.069 40.509 127.146 40.6267L127.691 41.3175C127.481 41.5631 127.246 41.7704 126.985 41.9392C126.724 42.103 126.45 42.236 126.163 42.3384C125.882 42.4356 125.593 42.5047 125.296 42.5456C125.004 42.5865 124.72 42.607 124.444 42.607C123.896 42.607 123.387 42.5175 122.916 42.3384C122.446 42.1542 122.036 41.8855 121.688 41.5324C121.34 41.1742 121.067 40.7342 120.867 40.2122C120.667 39.6851 120.568 39.0762 120.568 38.3854C120.568 37.8481 120.655 37.3441 120.829 36.8733C121.003 36.3974 121.251 35.9855 121.573 35.6375C121.901 35.2844 122.297 35.0055 122.763 34.8009C123.234 34.5962 123.763 34.4938 124.352 34.4938C124.848 34.4938 125.306 34.5731 125.726 34.7318C126.145 34.8904 126.506 35.1232 126.808 35.4303C127.11 35.7322 127.345 36.1057 127.514 36.5509C127.688 36.991 127.775 37.495 127.775 38.063C127.775 38.3496 127.744 38.544 127.683 38.6464C127.622 38.7436 127.504 38.7922 127.33 38.7922H122.456ZM131.094 40.4502C131.309 40.7111 131.542 40.8953 131.792 41.0028C132.048 41.1103 132.317 41.164 132.598 41.164C132.89 41.164 133.151 41.1128 133.381 41.0105C133.617 40.903 133.816 40.7393 133.98 40.5192C134.144 40.2941 134.269 40.0101 134.356 39.6672C134.443 39.3193 134.486 38.9048 134.486 38.4238C134.486 37.559 134.343 36.9347 134.057 36.5509C133.77 36.162 133.358 35.9676 132.821 35.9676C132.458 35.9676 132.14 36.052 131.869 36.2209C131.598 36.3846 131.339 36.6174 131.094 36.9193V40.4502ZM131.094 35.5838C131.411 35.2512 131.762 34.9876 132.145 34.7932C132.534 34.5936 132.977 34.4938 133.473 34.4938C133.929 34.4938 134.338 34.5834 134.701 34.7625C135.07 34.9416 135.382 35.2 135.638 35.5377C135.899 35.8703 136.098 36.2746 136.237 36.7505C136.375 37.2264 136.444 37.7611 136.444 38.3547C136.444 38.9943 136.364 39.5751 136.206 40.0971C136.047 40.619 135.819 41.0668 135.523 41.4403C135.231 41.8087 134.878 42.0953 134.463 42.3C134.049 42.5047 133.588 42.607 133.082 42.607C132.836 42.607 132.614 42.5814 132.414 42.5303C132.214 42.4842 132.03 42.4177 131.861 42.3307C131.693 42.2437 131.536 42.1388 131.393 42.016C131.255 41.8881 131.122 41.7473 130.994 41.5938L130.91 42.1234C130.879 42.2565 130.825 42.3512 130.748 42.4074C130.677 42.4637 130.577 42.4919 130.449 42.4919H129.198V31.0858H131.094V35.5838ZM139.696 35.9829C139.942 35.5121 140.234 35.1437 140.571 34.8776C140.909 34.6064 141.308 34.4708 141.769 34.4708C142.132 34.4708 142.424 34.5501 142.644 34.7087L142.521 36.1287C142.495 36.2209 142.457 36.2874 142.406 36.3283C142.36 36.3641 142.296 36.382 142.214 36.382C142.137 36.382 142.022 36.3693 141.869 36.3437C141.72 36.3181 141.574 36.3053 141.431 36.3053C141.221 36.3053 141.035 36.336 140.871 36.3974C140.707 36.4588 140.559 36.5484 140.426 36.666C140.298 36.7786 140.183 36.9168 140.08 37.0805C139.983 37.2443 139.891 37.4311 139.804 37.6409V42.4919H137.908V34.6166H139.021C139.215 34.6166 139.351 34.6525 139.428 34.7241C139.505 34.7906 139.556 34.9134 139.581 35.0925L139.696 35.9829ZM150.42 34.6166V42.4919H149.261C149.01 42.4919 148.852 42.3767 148.785 42.1465L148.655 41.5171C148.332 41.8446 147.977 42.1107 147.588 42.3153C147.199 42.5149 146.741 42.6147 146.214 42.6147C145.784 42.6147 145.403 42.5431 145.07 42.3998C144.743 42.2514 144.466 42.0441 144.241 41.778C144.016 41.512 143.845 41.1973 143.727 40.8339C143.614 40.4655 143.558 40.0613 143.558 39.6212V34.6166H145.454V39.6212C145.454 40.1022 145.564 40.4757 145.784 40.7418C146.009 41.0028 146.344 41.1333 146.789 41.1333C147.117 41.1333 147.424 41.0616 147.711 40.9184C147.997 40.77 148.268 40.5678 148.524 40.312V34.6166H150.42ZM156.46 39.1299C155.913 39.1555 155.452 39.2041 155.078 39.2758C154.705 39.3423 154.406 39.4293 154.18 39.5367C153.955 39.6442 153.794 39.7696 153.697 39.9129C153.6 40.0561 153.551 40.2122 153.551 40.3811C153.551 40.7137 153.648 40.9516 153.843 41.0949C154.042 41.2382 154.301 41.3098 154.618 41.3098C155.007 41.3098 155.342 41.2407 155.623 41.1026C155.91 40.9593 156.189 40.7444 156.46 40.4578V39.1299ZM152.116 35.7143C153.021 34.8853 154.111 34.4708 155.386 34.4708C155.846 34.4708 156.258 34.5476 156.621 34.7011C156.985 34.8495 157.292 35.0593 157.542 35.3305C157.793 35.5966 157.982 35.9164 158.11 36.2899C158.243 36.6635 158.31 37.0729 158.31 37.518V42.4919H157.45C157.271 42.4919 157.133 42.4663 157.036 42.4151C156.939 42.3588 156.862 42.2488 156.806 42.0851L156.637 41.5171C156.437 41.6962 156.243 41.8548 156.053 41.993C155.864 42.126 155.667 42.2386 155.462 42.3307C155.258 42.4228 155.038 42.4919 154.802 42.5379C154.572 42.5891 154.316 42.6147 154.035 42.6147C153.702 42.6147 153.395 42.5712 153.114 42.4842C152.832 42.3921 152.589 42.2565 152.384 42.0774C152.18 41.8983 152.021 41.6757 151.908 41.4096C151.796 41.1435 151.74 40.8339 151.74 40.4809C151.74 40.2813 151.773 40.0843 151.839 39.8898C151.906 39.6903 152.013 39.5009 152.162 39.3218C152.315 39.1427 152.512 38.9739 152.753 38.8152C152.993 38.6566 153.287 38.5184 153.635 38.4007C153.989 38.2831 154.398 38.1884 154.864 38.1167C155.329 38.04 155.861 37.9939 156.46 37.9786V37.518C156.46 36.991 156.348 36.6021 156.122 36.3513C155.897 36.0955 155.572 35.9676 155.148 35.9676C154.841 35.9676 154.585 36.0034 154.38 36.075C154.18 36.1467 154.004 36.2285 153.85 36.3206C153.697 36.4076 153.556 36.4869 153.428 36.5586C153.305 36.6302 153.167 36.666 153.014 36.666C152.881 36.666 152.768 36.6328 152.676 36.5663C152.584 36.4946 152.51 36.4127 152.453 36.3206L152.116 35.7143ZM161.884 35.9829C162.13 35.5121 162.421 35.1437 162.759 34.8776C163.097 34.6064 163.496 34.4708 163.956 34.4708C164.32 34.4708 164.611 34.5501 164.831 34.7087L164.709 36.1287C164.683 36.2209 164.645 36.2874 164.593 36.3283C164.547 36.3641 164.483 36.382 164.402 36.382C164.325 36.382 164.21 36.3693 164.056 36.3437C163.908 36.3181 163.762 36.3053 163.619 36.3053C163.409 36.3053 163.222 36.336 163.058 36.3974C162.895 36.4588 162.746 36.5484 162.613 36.666C162.485 36.7786 162.37 36.9168 162.268 37.0805C162.17 37.2443 162.078 37.4311 161.991 37.6409V42.4919H160.095V34.6166H161.208C161.403 34.6166 161.539 34.6525 161.615 34.7241C161.692 34.7906 161.743 34.9134 161.769 35.0925L161.884 35.9829ZM172.976 34.6166L168.685 44.6564C168.629 44.7895 168.555 44.8893 168.463 44.9558C168.376 45.0274 168.24 45.0632 168.056 45.0632H166.644L168.117 41.9009L164.932 34.6166H166.598C166.746 34.6166 166.861 34.6525 166.943 34.7241C167.03 34.7957 167.094 34.8776 167.135 34.9697L168.808 39.0532C168.864 39.1913 168.91 39.3295 168.946 39.4677C168.987 39.6058 169.026 39.7465 169.061 39.8898C169.107 39.7465 169.154 39.6058 169.2 39.4677C169.246 39.3244 169.297 39.1837 169.353 39.0455L170.934 34.9697C170.975 34.8674 171.042 34.7829 171.134 34.7164C171.231 34.6499 171.339 34.6166 171.456 34.6166H172.976ZM183.854 40.7265C184.059 40.7265 184.22 40.7853 184.338 40.903C184.461 41.0156 184.522 41.1665 184.522 41.3559V42.4919H176.908V41.8625C176.908 41.7345 176.933 41.6015 176.984 41.4633C177.041 41.3201 177.128 41.1921 177.245 41.0796L180.615 37.7023C180.897 37.4157 181.147 37.1419 181.367 36.881C181.592 36.62 181.779 36.3616 181.928 36.1057C182.076 35.8499 182.189 35.5914 182.265 35.3305C182.347 35.0644 182.388 34.7855 182.388 34.4938C182.388 34.2277 182.35 33.9949 182.273 33.7953C182.196 33.5907 182.086 33.4192 181.943 33.2811C181.805 33.1429 181.636 33.0406 181.436 32.974C181.242 32.9024 181.022 32.8666 180.776 32.8666C180.551 32.8666 180.341 32.8998 180.147 32.9664C179.958 33.0278 179.789 33.1173 179.64 33.235C179.492 33.3476 179.367 33.4806 179.264 33.6342C179.162 33.7877 179.085 33.9565 179.034 34.1407C178.947 34.3761 178.834 34.5322 178.696 34.609C178.558 34.6857 178.358 34.7036 178.097 34.6627L177.1 34.4862C177.176 33.954 177.325 33.4883 177.545 33.0892C177.765 32.6849 178.039 32.3498 178.366 32.0837C178.699 31.8125 179.077 31.6103 179.502 31.4773C179.932 31.3391 180.392 31.27 180.884 31.27C181.395 31.27 181.864 31.3468 182.288 31.5003C182.713 31.6487 183.076 31.8611 183.378 32.1374C183.68 32.4137 183.916 32.7463 184.084 33.1352C184.253 33.5241 184.338 33.9565 184.338 34.4324C184.338 34.8418 184.276 35.2205 184.154 35.5684C184.036 35.9164 183.875 36.249 183.67 36.5663C183.47 36.8835 183.235 37.1905 182.964 37.4873C182.693 37.7841 182.409 38.086 182.112 38.3931L179.61 40.9491C179.85 40.8774 180.088 40.8237 180.323 40.7879C180.564 40.7469 180.792 40.7265 181.007 40.7265H183.854ZM193.749 36.9424C193.749 37.9095 193.644 38.7513 193.435 39.4677C193.23 40.1789 192.943 40.7674 192.575 41.2331C192.212 41.6987 191.779 42.0467 191.278 42.277C190.781 42.5021 190.244 42.6147 189.666 42.6147C189.088 42.6147 188.55 42.5021 188.054 42.277C187.563 42.0467 187.135 41.6987 186.772 41.2331C186.409 40.7674 186.125 40.1789 185.92 39.4677C185.715 38.7513 185.613 37.9095 185.613 36.9424C185.613 35.9701 185.715 35.1284 185.92 34.4171C186.125 33.7058 186.409 33.1173 186.772 32.6517C187.135 32.186 187.563 31.8406 188.054 31.6154C188.55 31.3852 189.088 31.27 189.666 31.27C190.244 31.27 190.781 31.3852 191.278 31.6154C191.779 31.8406 192.212 32.186 192.575 32.6517C192.943 33.1173 193.23 33.7058 193.435 34.4171C193.644 35.1284 193.749 35.9701 193.749 36.9424ZM191.792 36.9424C191.792 36.139 191.733 35.4738 191.616 34.9467C191.498 34.4196 191.339 34 191.14 33.6879C190.945 33.3757 190.72 33.1583 190.464 33.0354C190.208 32.9075 189.942 32.8436 189.666 32.8436C189.395 32.8436 189.131 32.9075 188.875 33.0354C188.625 33.1583 188.402 33.3757 188.208 33.6879C188.013 34 187.857 34.4196 187.739 34.9467C187.627 35.4738 187.57 36.139 187.57 36.9424C187.57 37.7458 187.627 38.411 187.739 38.938C187.857 39.4651 188.013 39.8847 188.208 40.1969C188.402 40.509 188.625 40.729 188.875 40.857C189.131 40.9798 189.395 41.0412 189.666 41.0412C189.942 41.0412 190.208 40.9798 190.464 40.857C190.72 40.729 190.945 40.509 191.14 40.1969C191.339 39.8847 191.498 39.4651 191.616 38.938C191.733 38.411 191.792 37.7458 191.792 36.9424ZM201.664 40.7265C201.869 40.7265 202.03 40.7853 202.148 40.903C202.271 41.0156 202.332 41.1665 202.332 41.3559V42.4919H194.718V41.8625C194.718 41.7345 194.743 41.6015 194.794 41.4633C194.851 41.3201 194.938 41.1921 195.055 41.0796L198.425 37.7023C198.706 37.4157 198.957 37.1419 199.177 36.881C199.402 36.62 199.589 36.3616 199.738 36.1057C199.886 35.8499 199.999 35.5914 200.075 35.3305C200.157 35.0644 200.198 34.7855 200.198 34.4938C200.198 34.2277 200.16 33.9949 200.083 33.7953C200.006 33.5907 199.896 33.4192 199.753 33.2811C199.615 33.1429 199.446 33.0406 199.246 32.974C199.052 32.9024 198.832 32.8666 198.586 32.8666C198.361 32.8666 198.151 32.8998 197.957 32.9664C197.768 33.0278 197.599 33.1173 197.45 33.235C197.302 33.3476 197.176 33.4806 197.074 33.6342C196.972 33.7877 196.895 33.9565 196.844 34.1407C196.757 34.3761 196.644 34.5322 196.506 34.609C196.368 34.6857 196.168 34.7036 195.907 34.6627L194.91 34.4862C194.986 33.954 195.135 33.4883 195.355 33.0892C195.575 32.6849 195.849 32.3498 196.176 32.0837C196.509 31.8125 196.887 31.6103 197.312 31.4773C197.742 31.3391 198.202 31.27 198.694 31.27C199.205 31.27 199.674 31.3468 200.098 31.5003C200.523 31.6487 200.886 31.8611 201.188 32.1374C201.49 32.4137 201.726 32.7463 201.894 33.1352C202.063 33.5241 202.148 33.9565 202.148 34.4324C202.148 34.8418 202.086 35.2205 201.964 35.5684C201.846 35.9164 201.685 36.249 201.48 36.5663C201.28 36.8835 201.045 37.1905 200.774 37.4873C200.503 37.7841 200.219 38.086 199.922 38.3931L197.42 40.9491C197.66 40.8774 197.898 40.8237 198.133 40.7879C198.374 40.7469 198.602 40.7265 198.817 40.7265H201.664ZM210.569 40.7265C210.774 40.7265 210.935 40.7853 211.053 40.903C211.176 41.0156 211.237 41.1665 211.237 41.3559V42.4919H203.623V41.8625C203.623 41.7345 203.648 41.6015 203.699 41.4633C203.756 41.3201 203.843 41.1921 203.96 41.0796L207.33 37.7023C207.611 37.4157 207.862 37.1419 208.082 36.881C208.307 36.62 208.494 36.3616 208.643 36.1057C208.791 35.8499 208.904 35.5914 208.98 35.3305C209.062 35.0644 209.103 34.7855 209.103 34.4938C209.103 34.2277 209.065 33.9949 208.988 33.7953C208.911 33.5907 208.801 33.4192 208.658 33.2811C208.52 33.1429 208.351 33.0406 208.151 32.974C207.957 32.9024 207.737 32.8666 207.491 32.8666C207.266 32.8666 207.056 32.8998 206.862 32.9664C206.672 33.0278 206.504 33.1173 206.355 33.235C206.207 33.3476 206.081 33.4806 205.979 33.6342C205.877 33.7877 205.8 33.9565 205.749 34.1407C205.662 34.3761 205.549 34.5322 205.411 34.609C205.273 34.6857 205.073 34.7036 204.812 34.6627L203.815 34.4862C203.891 33.954 204.04 33.4883 204.26 33.0892C204.48 32.6849 204.754 32.3498 205.081 32.0837C205.414 31.8125 205.792 31.6103 206.217 31.4773C206.647 31.3391 207.107 31.27 207.599 31.27C208.11 31.27 208.579 31.3468 209.003 31.5003C209.428 31.6487 209.791 31.8611 210.093 32.1374C210.395 32.4137 210.631 32.7463 210.799 33.1352C210.968 33.5241 211.053 33.9565 211.053 34.4324C211.053 34.8418 210.991 35.2205 210.869 35.5684C210.751 35.9164 210.59 36.249 210.385 36.5663C210.185 36.8835 209.95 37.1905 209.679 37.4873C209.408 37.7841 209.124 38.086 208.827 38.3931L206.325 40.9491C206.565 40.8774 206.803 40.8237 207.038 40.7879C207.279 40.7469 207.507 40.7265 207.721 40.7265H210.569Z" fill="#1D3599"/>
<path d="M281.924 41.0973L286.53 36.4919L281.924 31.8865" stroke="#1D3599" stroke-width="1.53514" stroke-linecap="round" stroke-linejoin="round"/>
<line x1="26.1405" y1="63.7405" x2="297.859" y2="63.7405" stroke="#1D3599" stroke-width="0.767568" stroke-linecap="round"/>
<path d="M42.4396 80.4049C42.4089 80.4571 42.3767 80.4955 42.3429 80.52C42.3091 80.5446 42.2661 80.5569 42.2139 80.5569C42.1587 80.5569 42.0957 80.5323 42.0251 80.4832C41.9545 80.431 41.8655 80.3742 41.758 80.3128C41.6536 80.2483 41.5277 80.1915 41.3804 80.1424C41.233 80.0902 41.0565 80.0641 40.8507 80.0641C40.6573 80.0641 40.4869 80.0902 40.3395 80.1424C40.1952 80.1915 40.074 80.2606 39.9757 80.3496C39.8775 80.4356 39.8022 80.5384 39.7501 80.6582C39.7009 80.7749 39.6764 80.9023 39.6764 81.0404C39.6764 81.2185 39.7209 81.3659 39.8099 81.4825C39.902 81.5992 40.0218 81.699 40.1691 81.7819C40.3165 81.8648 40.4838 81.9369 40.6711 81.9984C40.8584 82.0598 41.0503 82.1242 41.2468 82.1918C41.4433 82.2563 41.6352 82.3315 41.8225 82.4174C42.0098 82.5034 42.1771 82.6124 42.3245 82.7444C42.4718 82.8734 42.5901 83.033 42.6791 83.2234C42.7712 83.4107 42.8173 83.6409 42.8173 83.9142C42.8173 84.2059 42.7666 84.4791 42.6653 84.734C42.567 84.9888 42.4227 85.2114 42.2324 85.4017C42.042 85.5921 41.8071 85.7425 41.5277 85.8531C41.2514 85.9605 40.9367 86.0143 40.5836 86.0143C40.3718 86.0143 40.1661 85.9928 39.9665 85.9498C39.7669 85.9099 39.5781 85.8531 39.4 85.7794C39.222 85.7026 39.0546 85.6121 38.8981 85.5077C38.7445 85.4002 38.6064 85.2805 38.4836 85.1485L38.7645 84.6787C38.7921 84.6419 38.8244 84.6112 38.8612 84.5866C38.9011 84.562 38.9456 84.5497 38.9948 84.5497C39.0592 84.5497 39.1329 84.5835 39.2158 84.6511C39.3018 84.7186 39.4062 84.7938 39.529 84.8767C39.6549 84.9566 39.8038 85.0302 39.9757 85.0978C40.1507 85.1653 40.3626 85.1991 40.6113 85.1991C40.8139 85.1991 40.995 85.173 41.1547 85.1208C41.3144 85.0656 41.4479 84.9888 41.5554 84.8905C41.6659 84.7892 41.7503 84.668 41.8087 84.5267C41.867 84.3855 41.8962 84.2289 41.8962 84.057C41.8962 83.8635 41.8517 83.7054 41.7626 83.5826C41.6736 83.4598 41.5554 83.3569 41.408 83.2741C41.2606 83.1912 41.0933 83.1205 40.906 83.0622C40.7187 83.0039 40.5268 82.944 40.3303 82.8826C40.1338 82.8181 39.9419 82.7444 39.7547 82.6615C39.5674 82.5786 39.4 82.4712 39.2527 82.3392C39.1053 82.2041 38.9871 82.0367 38.8981 81.8372C38.809 81.6345 38.7645 81.3858 38.7645 81.0911C38.7645 80.8547 38.8106 80.6259 38.9027 80.4049C38.9948 80.1838 39.1283 79.9889 39.3033 79.82C39.4814 79.6481 39.6994 79.5114 39.9573 79.4101C40.2152 79.3057 40.5099 79.2535 40.8415 79.2535C41.213 79.2535 41.5538 79.3134 41.8639 79.4331C42.1771 79.5498 42.4488 79.7187 42.6791 79.9397L42.4396 80.4049ZM46.8833 85.1531C47.1474 85.1531 47.3838 85.1085 47.5926 85.0195C47.8013 84.9305 47.9779 84.8061 48.1222 84.6465C48.2665 84.4837 48.377 84.2918 48.4538 84.0708C48.5305 83.8467 48.5689 83.5995 48.5689 83.3293V79.3272H49.5452V83.3293C49.5452 83.7162 49.4838 84.0739 49.361 84.4024C49.2382 84.7309 49.0617 85.0149 48.8314 85.2544C48.6011 85.4939 48.3217 85.6811 47.9932 85.8162C47.6647 85.9513 47.2947 86.0189 46.8833 86.0189C46.4719 86.0189 46.1019 85.9513 45.7734 85.8162C45.4449 85.6811 45.1655 85.4939 44.9352 85.2544C44.705 85.0149 44.5284 84.7309 44.4056 84.4024C44.2828 84.0739 44.2214 83.7162 44.2214 83.3293V79.3272H45.2023V83.3247C45.2023 83.5949 45.2392 83.8421 45.3129 84.0662C45.3896 84.2903 45.5002 84.4837 45.6445 84.6465C45.7888 84.8061 45.9653 84.9305 46.1741 85.0195C46.3829 85.1085 46.6193 85.1531 46.8833 85.1531ZM56.7878 79.3272V85.9406H56.2904C56.2136 85.9406 56.1491 85.9268 56.0969 85.8991C56.0478 85.8715 55.9972 85.827 55.945 85.7656L52.21 80.9345C52.2161 81.0174 52.2207 81.0988 52.2238 81.1786C52.2299 81.2584 52.233 81.3336 52.233 81.4043V85.9406H51.3718V79.3272H51.8784C51.9644 79.3272 52.0288 79.338 52.0718 79.3595C52.1148 79.3779 52.1624 79.4224 52.2146 79.493L55.9588 84.3287C55.9496 84.2397 55.9419 84.1537 55.9358 84.0708C55.9327 83.9848 55.9311 83.905 55.9311 83.8313V79.3272H56.7878Z" fill="black"/>
<path d="M86.4936 79.3272V85.9406H85.637V81.2338C85.637 81.1632 85.6385 81.088 85.6416 81.0082C85.6477 80.9283 85.6538 80.847 85.66 80.7641L83.4586 84.803C83.3818 84.9535 83.2636 85.0287 83.104 85.0287H82.9658C82.8062 85.0287 82.6895 84.9535 82.6158 84.803L80.373 80.7503C80.3914 80.9222 80.4006 81.0834 80.4006 81.2338V85.9406H79.5394V79.3272H80.2671C80.353 79.3272 80.419 79.3364 80.4651 79.3548C80.5142 79.3702 80.5603 79.4162 80.6032 79.493L82.8138 83.4536C82.8568 83.5335 82.8967 83.6179 82.9336 83.7069C82.9704 83.796 83.0057 83.885 83.0395 83.974C83.104 83.7929 83.1792 83.6179 83.2652 83.449L85.4343 79.493C85.4742 79.4162 85.5172 79.3702 85.5633 79.3548C85.6124 79.3364 85.6799 79.3272 85.7659 79.3272H86.4936ZM94.5679 82.6339C94.5679 83.1282 94.4881 83.5826 94.3284 83.9971C94.1719 84.4085 93.9493 84.7646 93.6607 85.0655C93.372 85.3633 93.0266 85.5951 92.6244 85.7609C92.2222 85.9267 91.7755 86.0096 91.2843 86.0096C90.7961 86.0096 90.3494 85.9267 89.9441 85.7609C89.5419 85.5951 89.1965 85.3633 88.9079 85.0655C88.6223 84.7646 88.3997 84.4085 88.2401 83.9971C88.0804 83.5826 88.0006 83.1282 88.0006 82.6339C88.0006 82.1426 88.0804 81.6898 88.2401 81.2753C88.3997 80.8608 88.6223 80.5046 88.9079 80.2068C89.1965 79.9059 89.5419 79.6726 89.9441 79.5068C90.3494 79.3379 90.7961 79.2535 91.2843 79.2535C91.7755 79.2535 92.2222 79.3379 92.6244 79.5068C93.0266 79.6726 93.372 79.9059 93.6607 80.2068C93.9493 80.5046 94.1719 80.8608 94.3284 81.2753C94.4881 81.6898 94.5679 82.1426 94.5679 82.6339ZM93.5639 82.6339C93.5639 82.2409 93.5102 81.8878 93.4027 81.5746C93.2953 81.2615 93.1418 80.9959 92.9422 80.7779C92.7457 80.5599 92.5062 80.3926 92.2238 80.2759C91.9444 80.1592 91.6312 80.1009 91.2843 80.1009C90.9373 80.1009 90.6226 80.1592 90.3402 80.2759C90.0608 80.3926 89.8213 80.5599 89.6217 80.7779C89.4221 80.9959 89.2686 81.2615 89.1612 81.5746C89.0537 81.8878 89 82.2409 89 82.6339C89 83.0299 89.0537 83.3846 89.1612 83.6977C89.2686 84.0078 89.4221 84.2719 89.6217 84.4898C89.8213 84.7078 90.0608 84.8752 90.3402 84.9918C90.6226 85.1054 90.9373 85.1622 91.2843 85.1622C91.6312 85.1622 91.9444 85.1054 92.2238 84.9918C92.5062 84.8752 92.7457 84.7078 92.9422 84.4898C93.1418 84.2719 93.2953 84.0078 93.4027 83.6977C93.5102 83.3846 93.5639 83.0299 93.5639 82.6339ZM101.492 79.3272V85.9406H100.995C100.918 85.9406 100.853 85.9267 100.801 85.8991C100.752 85.8715 100.701 85.827 100.649 85.7655L96.9142 80.9345C96.9204 81.0174 96.925 81.0987 96.928 81.1786C96.9342 81.2584 96.9373 81.3336 96.9373 81.4042V85.9406H96.076V79.3272H96.5826C96.6686 79.3272 96.7331 79.3379 96.7761 79.3594C96.819 79.3778 96.8666 79.4224 96.9188 79.493L100.663 84.3287C100.654 84.2396 100.646 84.1537 100.64 84.0708C100.637 83.9848 100.635 83.905 100.635 83.8313V79.3272H101.492Z" fill="black"/>
<path d="M128.656 80.147H126.556V85.9406H125.58V80.147H123.471V79.3272H128.656V80.147ZM132.463 85.153C132.727 85.153 132.963 85.1085 133.172 85.0195C133.381 84.9304 133.557 84.8061 133.702 84.6464C133.846 84.4837 133.957 84.2918 134.033 84.0708C134.11 83.8466 134.148 83.5995 134.148 83.3293V79.3272H135.125V83.3293C135.125 83.7161 135.063 84.0738 134.941 84.4023C134.818 84.7309 134.641 85.0149 134.411 85.2543C134.181 85.4938 133.901 85.6811 133.573 85.8162C133.244 85.9513 132.874 86.0188 132.463 86.0188C132.051 86.0188 131.681 85.9513 131.353 85.8162C131.024 85.6811 130.745 85.4938 130.515 85.2543C130.284 85.0149 130.108 84.7309 129.985 84.4023C129.862 84.0738 129.801 83.7161 129.801 83.3293V79.3272H130.782V83.3247C130.782 83.5949 130.819 83.842 130.892 84.0662C130.969 84.2903 131.08 84.4837 131.224 84.6464C131.368 84.8061 131.545 84.9304 131.754 85.0195C131.962 85.1085 132.199 85.153 132.463 85.153ZM141.055 85.1438L141.05 85.9406H136.951V79.3272H141.05V80.1239H137.937V82.2194H140.442V82.9885H137.937V85.1438H141.055Z" fill="black"/>
<path d="M172.696 79.3272L170.633 85.9406H169.749L168.137 81.0358C168.1 80.9375 168.068 80.8193 168.04 80.6812C168.006 80.8224 167.974 80.9406 167.943 81.0358L166.313 85.9406H165.434L163.37 79.3272H164.19C164.276 79.3272 164.348 79.3487 164.407 79.3917C164.465 79.4316 164.503 79.4868 164.522 79.5575L165.825 83.9833C165.85 84.0692 165.871 84.1629 165.889 84.2642C165.911 84.3655 165.932 84.4714 165.954 84.582C165.975 84.4714 165.997 84.3655 166.018 84.2642C166.043 84.1629 166.071 84.0692 166.101 83.9833L167.593 79.5575C167.612 79.4961 167.65 79.4423 167.709 79.3963C167.77 79.3502 167.842 79.3272 167.925 79.3272H168.206C168.292 79.3272 168.363 79.3487 168.418 79.3917C168.473 79.4346 168.513 79.4899 168.538 79.5575L170.025 83.9833C170.08 84.1521 170.13 84.344 170.173 84.5589C170.209 84.3471 170.249 84.1552 170.292 83.9833L171.6 79.5575C171.616 79.4961 171.654 79.4423 171.715 79.3963C171.777 79.3502 171.849 79.3272 171.932 79.3272H172.696ZM178.011 85.1438L178.007 85.9406H173.908V79.3272H178.007V80.1239H174.894V82.2194H177.399V82.9885H174.894V85.1438H178.011ZM185.271 82.6339C185.271 83.1282 185.191 83.578 185.031 83.9833C184.875 84.3885 184.652 84.737 184.364 85.0287C184.075 85.3173 183.73 85.5414 183.327 85.7011C182.925 85.8607 182.479 85.9406 181.987 85.9406H179.5V79.3272H181.987C182.479 79.3272 182.925 79.407 183.327 79.5667C183.73 79.7263 184.075 79.952 184.364 80.2437C184.652 80.5323 184.875 80.8807 185.031 81.2891C185.191 81.6944 185.271 82.1426 185.271 82.6339ZM184.267 82.6339C184.267 82.2409 184.213 81.8893 184.106 81.5792C183.998 81.2661 183.845 81.002 183.645 80.7871C183.449 80.5691 183.209 80.4033 182.927 80.2897C182.647 80.1761 182.334 80.1193 181.987 80.1193H180.486V85.1484H181.987C182.334 85.1484 182.647 85.0916 182.927 84.978C183.209 84.8644 183.449 84.7002 183.645 84.4852C183.845 84.2673 183.998 84.0032 184.106 83.6931C184.213 83.383 184.267 83.0299 184.267 82.6339Z" fill="black"/>
<path d="M211.851 80.1469H209.751V85.9405H208.774V80.1469H206.665V79.3272H211.851V80.1469ZM218.494 79.3272V85.9405H217.513V82.9608H214.064V85.9405H213.078V79.3272H214.064V82.247H217.513V79.3272H218.494ZM222.986 85.153C223.25 85.153 223.486 85.1085 223.695 85.0194C223.904 84.9304 224.08 84.8061 224.225 84.6464C224.369 84.4837 224.479 84.2918 224.556 84.0707C224.633 83.8466 224.671 83.5994 224.671 83.3293V79.3272H225.648V83.3293C225.648 83.7161 225.586 84.0738 225.463 84.4023C225.341 84.7308 225.164 85.0148 224.934 85.2543C224.704 85.4938 224.424 85.6811 224.096 85.8162C223.767 85.9513 223.397 86.0188 222.986 86.0188C222.574 86.0188 222.204 85.9513 221.876 85.8162C221.547 85.6811 221.268 85.4938 221.038 85.2543C220.807 85.0148 220.631 84.7308 220.508 84.4023C220.385 84.0738 220.324 83.7161 220.324 83.3293V79.3272H221.305V83.3247C221.305 83.5948 221.342 83.842 221.415 84.0661C221.492 84.2903 221.603 84.4837 221.747 84.6464C221.891 84.8061 222.068 84.9304 222.277 85.0194C222.485 85.1085 222.722 85.153 222.986 85.153Z" fill="black"/>
<path d="M249.052 80.1239V82.3391H251.705V83.1359H249.052V85.9406H248.066V79.3272H252.165V80.1239H249.052ZM255.425 82.5141C255.677 82.5141 255.898 82.4834 256.088 82.422C256.282 82.3606 256.443 82.2746 256.572 82.1641C256.701 82.0505 256.798 81.917 256.862 81.7634C256.927 81.6069 256.959 81.4349 256.959 81.2476C256.959 80.8669 256.833 80.5799 256.581 80.3864C256.333 80.193 255.958 80.0963 255.458 80.0963H254.532V82.5141H255.425ZM258.511 85.9406H257.636C257.461 85.9406 257.333 85.8715 257.254 85.7333L255.619 83.4398C255.567 83.3631 255.51 83.3093 255.448 83.2786C255.387 83.2449 255.295 83.228 255.172 83.228H254.532V85.9406H253.551V79.3272H255.458C255.884 79.3272 256.251 79.3717 256.558 79.4607C256.868 79.5467 257.123 79.6711 257.323 79.8338C257.525 79.9934 257.674 80.1869 257.769 80.4141C257.868 80.6413 257.917 80.8961 257.917 81.1786C257.917 81.4088 257.882 81.6253 257.811 81.8279C257.74 82.0306 257.636 82.2132 257.498 82.376C257.363 82.5356 257.197 82.6738 257 82.7905C256.804 82.9071 256.581 82.9962 256.333 83.0576C256.455 83.1313 256.561 83.2341 256.65 83.3661L258.511 85.9406ZM260.623 85.9406H259.638V79.3272H260.623V85.9406Z" fill="black"/>
<path d="M291.402 80.4049C291.371 80.457 291.339 80.4954 291.305 80.52C291.271 80.5446 291.228 80.5568 291.176 80.5568C291.121 80.5568 291.058 80.5323 290.987 80.4831C290.917 80.431 290.828 80.3742 290.72 80.3127C290.616 80.2483 290.49 80.1915 290.343 80.1423C290.195 80.0902 290.019 80.0641 289.813 80.0641C289.619 80.0641 289.449 80.0902 289.302 80.1423C289.157 80.1915 289.036 80.2606 288.938 80.3496C288.84 80.4356 288.764 80.5384 288.712 80.6582C288.663 80.7748 288.639 80.9022 288.639 81.0404C288.639 81.2185 288.683 81.3658 288.772 81.4825C288.864 81.5992 288.984 81.699 289.131 81.7819C289.279 81.8648 289.446 81.9369 289.633 81.9983C289.821 82.0597 290.012 82.1242 290.209 82.1918C290.405 82.2562 290.597 82.3314 290.785 82.4174C290.972 82.5034 291.139 82.6124 291.287 82.7444C291.434 82.8734 291.552 83.033 291.641 83.2234C291.733 83.4106 291.779 83.6409 291.779 83.9142C291.779 84.2058 291.729 84.4791 291.627 84.7339C291.529 84.9888 291.385 85.2114 291.195 85.4017C291.004 85.5921 290.769 85.7425 290.49 85.853C290.214 85.9605 289.899 86.0142 289.546 86.0142C289.334 86.0142 289.128 85.9927 288.929 85.9498C288.729 85.9098 288.54 85.853 288.362 85.7794C288.184 85.7026 288.017 85.612 287.86 85.5076C287.707 85.4002 287.569 85.2804 287.446 85.1484L287.727 84.6787C287.754 84.6418 287.787 84.6111 287.823 84.5866C287.863 84.562 287.908 84.5497 287.957 84.5497C288.021 84.5497 288.095 84.5835 288.178 84.651C288.264 84.7186 288.368 84.7938 288.491 84.8767C288.617 84.9565 288.766 85.0302 288.938 85.0978C289.113 85.1653 289.325 85.1991 289.573 85.1991C289.776 85.1991 289.957 85.173 290.117 85.1208C290.277 85.0655 290.41 84.9888 290.518 84.8905C290.628 84.7892 290.712 84.6679 290.771 84.5267C290.829 84.3855 290.858 84.2289 290.858 84.0569C290.858 83.8635 290.814 83.7054 290.725 83.5826C290.636 83.4598 290.518 83.3569 290.37 83.274C290.223 83.1911 290.055 83.1205 289.868 83.0622C289.681 83.0038 289.489 82.944 289.292 82.8826C289.096 82.8181 288.904 82.7444 288.717 82.6615C288.53 82.5786 288.362 82.4711 288.215 82.3391C288.067 82.204 287.949 82.0367 287.86 81.8371C287.771 81.6345 287.727 81.3858 287.727 81.0911C287.727 80.8546 287.773 80.6259 287.865 80.4049C287.957 80.1838 288.09 79.9888 288.265 79.82C288.444 79.648 288.662 79.5114 288.919 79.4101C289.177 79.3057 289.472 79.2535 289.804 79.2535C290.175 79.2535 290.516 79.3134 290.826 79.4331C291.139 79.5498 291.411 79.7186 291.641 79.9397L291.402 80.4049ZM296.654 83.4767L295.673 80.9114C295.603 80.7364 295.532 80.5154 295.462 80.2483C295.428 80.3803 295.393 80.5031 295.356 80.6167C295.322 80.7303 295.288 80.8316 295.254 80.9207L294.278 83.4767H296.654ZM298.593 85.9406H297.838C297.752 85.9406 297.681 85.9191 297.626 85.8761C297.571 85.8331 297.531 85.7778 297.506 85.7103L296.922 84.1767H294.006L293.421 85.7103C293.4 85.7686 293.36 85.8223 293.302 85.8715C293.243 85.9175 293.173 85.9406 293.09 85.9406H292.335L294.969 79.3272H295.959L298.593 85.9406ZM303.556 80.147H301.456V85.9406H300.48V80.147H298.371V79.3272H303.556V80.147Z" fill="black"/>
<path d="M131.061 121.557V122.587H125.7V121.557H127.8V115.057C127.8 114.849 127.807 114.635 127.821 114.414L126.135 115.844C126.071 115.895 126.006 115.927 125.942 115.941C125.878 115.955 125.815 115.957 125.755 115.948C125.7 115.939 125.65 115.92 125.603 115.893C125.562 115.86 125.528 115.828 125.5 115.796L125.078 115.209L128.049 112.646H129.147V121.557H131.061Z" fill="black"/>
<path d="M170.726 121.309C170.873 121.309 170.988 121.352 171.071 121.44C171.154 121.523 171.196 121.633 171.196 121.771V122.587H164.536V122.124C164.536 122.032 164.555 121.935 164.591 121.834C164.628 121.728 164.69 121.633 164.778 121.55L167.914 118.407C168.177 118.145 168.414 117.891 168.626 117.647C168.838 117.403 169.017 117.161 169.165 116.922C169.312 116.678 169.425 116.429 169.503 116.176C169.586 115.922 169.627 115.655 169.627 115.374C169.627 115.098 169.584 114.856 169.496 114.649C169.409 114.437 169.289 114.262 169.137 114.124C168.985 113.986 168.805 113.882 168.598 113.813C168.391 113.744 168.167 113.71 167.928 113.71C167.689 113.71 167.467 113.744 167.265 113.813C167.067 113.882 166.889 113.979 166.733 114.103C166.576 114.228 166.445 114.375 166.339 114.545C166.233 114.716 166.157 114.9 166.111 115.098C166.047 115.273 165.964 115.391 165.862 115.45C165.766 115.51 165.623 115.524 165.434 115.492L164.73 115.368C164.794 114.907 164.921 114.502 165.109 114.152C165.298 113.802 165.535 113.509 165.821 113.274C166.107 113.035 166.434 112.855 166.802 112.736C167.175 112.616 167.576 112.556 168.004 112.556C168.437 112.556 168.835 112.62 169.199 112.749C169.568 112.874 169.885 113.056 170.152 113.295C170.42 113.535 170.629 113.827 170.781 114.172C170.933 114.513 171.009 114.9 171.009 115.333C171.009 115.701 170.954 116.045 170.843 116.362C170.737 116.675 170.59 116.975 170.401 117.26C170.217 117.546 170 117.825 169.752 118.096C169.508 118.363 169.247 118.635 168.971 118.911L166.457 121.481C166.65 121.431 166.843 121.389 167.037 121.357C167.235 121.325 167.421 121.309 167.596 121.309H170.726Z" fill="black"/>
<rect x="191.716" y="100.968" width="32.2378" height="32.2378" rx="16.1189" fill="white" fill-opacity="0.5"/>
<path d="M204.684 115.368C204.754 114.907 204.882 114.502 205.071 114.152C205.26 113.802 205.497 113.509 205.783 113.274C206.068 113.035 206.395 112.855 206.764 112.736C207.137 112.616 207.537 112.556 207.966 112.556C208.394 112.556 208.788 112.618 209.147 112.742C209.506 112.862 209.813 113.035 210.066 113.261C210.324 113.482 210.524 113.749 210.667 114.062C210.81 114.375 210.881 114.72 210.881 115.098C210.881 115.416 210.842 115.697 210.764 115.941C210.685 116.185 210.572 116.399 210.425 116.583C210.282 116.768 210.107 116.924 209.9 117.053C209.693 117.177 209.46 117.281 209.202 117.364C209.833 117.539 210.308 117.825 210.625 118.221C210.943 118.612 211.102 119.109 211.102 119.713C211.102 120.178 211.015 120.597 210.84 120.97C210.665 121.338 210.425 121.652 210.121 121.91C209.817 122.163 209.463 122.359 209.057 122.497C208.657 122.63 208.228 122.697 207.772 122.697C207.252 122.697 206.805 122.635 206.432 122.511C206.059 122.382 205.741 122.204 205.479 121.979C205.216 121.748 204.998 121.474 204.823 121.157C204.652 120.834 204.507 120.482 204.387 120.1L204.975 119.851C205.127 119.786 205.274 119.768 205.417 119.796C205.559 119.823 205.663 119.904 205.728 120.037C205.797 120.176 205.875 120.332 205.962 120.507C206.055 120.678 206.177 120.841 206.329 120.998C206.481 121.15 206.669 121.279 206.895 121.385C207.125 121.49 207.413 121.543 207.759 121.543C208.09 121.543 208.38 121.49 208.629 121.385C208.878 121.274 209.085 121.134 209.251 120.963C209.417 120.788 209.541 120.595 209.624 120.383C209.707 120.171 209.748 119.961 209.748 119.754C209.748 119.496 209.716 119.259 209.651 119.043C209.587 118.826 209.463 118.642 209.278 118.49C209.099 118.333 208.848 118.211 208.525 118.124C208.203 118.036 207.784 117.993 207.268 117.993V117.012C207.692 117.007 208.049 116.963 208.339 116.88C208.634 116.798 208.871 116.682 209.05 116.535C209.23 116.388 209.359 116.213 209.437 116.01C209.52 115.807 209.562 115.582 209.562 115.333C209.562 115.061 209.52 114.824 209.437 114.621C209.354 114.419 209.237 114.251 209.085 114.117C208.938 113.979 208.76 113.878 208.553 113.813C208.35 113.744 208.129 113.71 207.89 113.71C207.65 113.71 207.429 113.744 207.227 113.813C207.024 113.882 206.844 113.979 206.688 114.103C206.531 114.228 206.4 114.375 206.294 114.545C206.188 114.716 206.112 114.9 206.066 115.098C206.002 115.273 205.919 115.391 205.817 115.45C205.721 115.51 205.58 115.524 205.396 115.492L204.684 115.368Z" fill="black"/>
<rect x="231.63" y="100.968" width="32.2378" height="32.2378" rx="16.1189" fill="#FF9B4F" fill-opacity="0.7"/>
<path d="M248.757 118.967V115.098C248.757 114.965 248.759 114.824 248.764 114.677C248.773 114.525 248.789 114.368 248.812 114.207L245.337 118.967H248.757ZM251.375 118.967V119.747C251.375 119.826 251.35 119.892 251.299 119.948C251.248 120.003 251.177 120.031 251.085 120.031H249.938V122.587H248.757V120.031H244.405C244.303 120.031 244.218 120.003 244.149 119.948C244.08 119.888 244.034 119.814 244.011 119.727L243.873 119.036L248.667 112.66H249.938V118.967H251.375Z" fill="black"/>
<path d="M286.232 116.369C286.738 116.263 287.196 116.21 287.606 116.21C288.122 116.21 288.578 116.289 288.974 116.445C289.37 116.597 289.702 116.809 289.969 117.081C290.241 117.348 290.443 117.666 290.577 118.034C290.715 118.398 290.784 118.794 290.784 119.222C290.784 119.747 290.692 120.224 290.508 120.652C290.323 121.081 290.07 121.447 289.748 121.751C289.425 122.055 289.043 122.289 288.601 122.455C288.164 122.616 287.692 122.697 287.185 122.697C286.886 122.697 286.6 122.667 286.328 122.607C286.061 122.547 285.81 122.469 285.575 122.372C285.34 122.271 285.122 122.156 284.919 122.027C284.721 121.898 284.544 121.762 284.387 121.619L284.802 121.039C284.889 120.91 285.007 120.846 285.154 120.846C285.251 120.846 285.357 120.883 285.472 120.956C285.591 121.025 285.732 121.104 285.893 121.191C286.054 121.279 286.245 121.359 286.466 121.433C286.688 121.502 286.95 121.536 287.254 121.536C287.59 121.536 287.892 121.484 288.159 121.378C288.431 121.267 288.659 121.113 288.843 120.915C289.032 120.717 289.174 120.48 289.271 120.203C289.372 119.927 289.423 119.621 289.423 119.284C289.423 118.985 289.379 118.716 289.292 118.476C289.204 118.237 289.073 118.032 288.898 117.861C288.723 117.691 288.504 117.562 288.242 117.475C287.979 117.382 287.673 117.336 287.323 117.336C286.835 117.336 286.314 117.424 285.762 117.599L284.912 117.35L285.72 112.666H290.473V113.254C290.473 113.447 290.411 113.606 290.287 113.73C290.167 113.85 289.964 113.91 289.679 113.91H286.66L286.232 116.369Z" fill="black"/>
<path d="M48.1667 159.949C48.4844 159.949 48.7723 159.899 49.0302 159.797C49.2881 159.692 49.5092 159.549 49.6934 159.369C49.8776 159.19 50.0204 158.975 50.1217 158.727C50.223 158.478 50.2736 158.209 50.2736 157.918C50.2736 157.601 50.223 157.317 50.1217 157.069C50.025 156.815 49.8868 156.601 49.7072 156.426C49.5322 156.251 49.3203 156.118 49.0716 156.026C48.8229 155.933 48.5466 155.887 48.2427 155.887C47.9249 155.887 47.6394 155.943 47.3861 156.053C47.1328 156.159 46.9163 156.304 46.7367 156.488C46.5571 156.668 46.4189 156.88 46.3222 157.124C46.2255 157.368 46.1771 157.624 46.1771 157.891C46.1771 158.195 46.2209 158.473 46.3084 158.727C46.3959 158.98 46.5248 159.196 46.6952 159.376C46.8656 159.556 47.0729 159.696 47.317 159.797C47.5657 159.899 47.8489 159.949 48.1667 159.949ZM47.5311 154.734C47.4528 154.835 47.3745 154.934 47.2963 155.031C47.2226 155.123 47.1512 155.215 47.0821 155.307C47.3032 155.164 47.5472 155.054 47.8144 154.976C48.0861 154.897 48.3785 154.858 48.6917 154.858C49.0832 154.858 49.4562 154.923 49.8108 155.052C50.1654 155.181 50.4763 155.369 50.7434 155.618C51.0151 155.867 51.2293 156.175 51.3859 156.544C51.5424 156.912 51.6207 157.336 51.6207 157.815C51.6207 158.271 51.5378 158.699 51.372 159.1C51.2062 159.496 50.9714 159.841 50.6674 160.136C50.3681 160.426 50.0088 160.656 49.5897 160.827C49.1707 160.993 48.7055 161.075 48.1943 161.075C47.6877 161.075 47.2295 160.995 46.8196 160.834C46.4143 160.672 46.0666 160.444 45.7765 160.15C45.4909 159.85 45.2699 159.491 45.1133 159.072C44.9567 158.648 44.8784 158.179 44.8784 157.663C44.8784 157.221 44.9728 156.756 45.1616 156.267C45.3551 155.775 45.659 155.25 46.0735 154.692L48.5535 151.37C48.6226 151.277 48.7193 151.201 48.8437 151.142C48.968 151.077 49.1108 151.045 49.272 151.045H50.474L47.5311 154.734Z" fill="black"/>
<path d="M91.5758 151.045V151.646C91.5758 151.821 91.555 151.964 91.5136 152.074C91.4767 152.18 91.4399 152.272 91.403 152.35L87.3825 160.488C87.3181 160.622 87.2282 160.735 87.1131 160.827C86.998 160.919 86.8437 160.965 86.6503 160.965H85.6831L89.7658 152.945C89.8349 152.816 89.904 152.698 89.9731 152.592C90.0422 152.482 90.1181 152.38 90.201 152.288H85.1305C85.043 152.288 84.967 152.256 84.9025 152.192C84.838 152.127 84.8058 152.051 84.8058 151.964V151.045H91.5758Z" fill="black"/>
<rect x="111.889" y="139.346" width="32.2378" height="32.2378" rx="16.1189" fill="#FF9B4F"/>
<path d="M128.008 160.005C128.321 160.005 128.599 159.961 128.843 159.873C129.087 159.786 129.295 159.664 129.465 159.507C129.636 159.346 129.764 159.155 129.852 158.934C129.939 158.713 129.983 158.471 129.983 158.209C129.983 157.886 129.93 157.61 129.824 157.38C129.718 157.145 129.576 156.954 129.396 156.806C129.216 156.654 129.007 156.544 128.767 156.475C128.528 156.401 128.275 156.364 128.008 156.364C127.736 156.364 127.48 156.401 127.241 156.475C127.001 156.544 126.792 156.654 126.612 156.806C126.432 156.954 126.29 157.145 126.184 157.38C126.082 157.61 126.032 157.886 126.032 158.209C126.032 158.471 126.076 158.713 126.163 158.934C126.251 159.155 126.38 159.346 126.55 159.507C126.72 159.664 126.928 159.786 127.172 159.873C127.416 159.961 127.694 160.005 128.008 160.005ZM128.008 151.971C127.722 151.971 127.471 152.014 127.255 152.102C127.043 152.185 126.865 152.3 126.723 152.447C126.58 152.595 126.472 152.765 126.398 152.958C126.329 153.152 126.294 153.359 126.294 153.58C126.294 153.797 126.324 154.008 126.384 154.216C126.449 154.418 126.548 154.6 126.681 154.761C126.819 154.918 126.997 155.045 127.213 155.141C127.43 155.238 127.694 155.286 128.008 155.286C128.316 155.286 128.579 155.238 128.795 155.141C129.016 155.045 129.193 154.918 129.327 154.761C129.465 154.6 129.564 154.418 129.624 154.216C129.688 154.008 129.721 153.797 129.721 153.58C129.721 153.359 129.684 153.152 129.61 152.958C129.541 152.765 129.435 152.595 129.292 152.447C129.15 152.3 128.97 152.185 128.754 152.102C128.542 152.014 128.293 151.971 128.008 151.971ZM129.493 155.791C130.11 155.975 130.577 156.272 130.895 156.682C131.217 157.092 131.379 157.61 131.379 158.236C131.379 158.669 131.296 159.061 131.13 159.411C130.969 159.761 130.739 160.06 130.439 160.309C130.144 160.553 129.79 160.742 129.375 160.875C128.961 161.009 128.505 161.075 128.008 161.075C127.51 161.075 127.054 161.009 126.64 160.875C126.225 160.742 125.868 160.553 125.569 160.309C125.274 160.06 125.044 159.761 124.878 159.411C124.717 159.061 124.636 158.669 124.636 158.236C124.636 157.61 124.795 157.092 125.113 156.682C125.435 156.272 125.905 155.975 126.522 155.791C126.011 155.597 125.627 155.309 125.369 154.927C125.111 154.54 124.982 154.082 124.982 153.553C124.982 153.184 125.053 152.841 125.196 152.523C125.343 152.201 125.548 151.922 125.811 151.687C126.078 151.452 126.398 151.268 126.771 151.135C127.144 151.001 127.556 150.934 128.008 150.934C128.459 150.934 128.871 151.001 129.244 151.135C129.617 151.268 129.935 151.452 130.197 151.687C130.465 151.922 130.669 152.201 130.812 152.523C130.96 152.841 131.033 153.184 131.033 153.553C131.033 154.082 130.904 154.54 130.646 154.927C130.389 155.309 130.004 155.597 129.493 155.791Z" fill="black"/>
<path d="M165.952 153.974C165.952 154.586 166.118 155.058 166.45 155.39C166.781 155.722 167.242 155.887 167.831 155.887C168.149 155.887 168.43 155.837 168.674 155.735C168.918 155.63 169.123 155.491 169.289 155.321C169.459 155.146 169.588 154.946 169.676 154.72C169.763 154.49 169.807 154.25 169.807 154.002C169.807 153.702 169.759 153.433 169.662 153.193C169.57 152.949 169.439 152.744 169.268 152.578C169.098 152.408 168.895 152.279 168.66 152.192C168.43 152.099 168.174 152.053 167.893 152.053C167.603 152.053 167.339 152.102 167.099 152.199C166.86 152.291 166.655 152.422 166.484 152.592C166.314 152.763 166.183 152.965 166.09 153.2C165.998 153.435 165.952 153.693 165.952 153.974ZM168.674 157.041C168.854 156.806 169.022 156.576 169.178 156.35C168.93 156.539 168.651 156.682 168.342 156.779C168.039 156.875 167.714 156.924 167.368 156.924C167.005 156.924 166.655 156.861 166.318 156.737C165.987 156.613 165.692 156.431 165.434 156.191C165.181 155.947 164.978 155.648 164.826 155.293C164.674 154.939 164.598 154.531 164.598 154.071C164.598 153.638 164.679 153.23 164.84 152.848C165.001 152.466 165.227 152.134 165.517 151.853C165.812 151.568 166.162 151.344 166.567 151.183C166.977 151.017 167.426 150.934 167.914 150.934C168.398 150.934 168.835 151.013 169.227 151.169C169.623 151.326 169.959 151.547 170.235 151.832C170.512 152.113 170.726 152.452 170.878 152.848C171.03 153.244 171.106 153.679 171.106 154.154C171.106 154.444 171.078 154.72 171.023 154.982C170.972 155.245 170.896 155.501 170.795 155.749C170.698 155.998 170.578 156.244 170.436 156.488C170.297 156.728 170.139 156.974 169.959 157.228L167.576 160.647C167.511 160.739 167.417 160.815 167.292 160.875C167.173 160.935 167.035 160.965 166.878 160.965H165.641L168.674 157.041Z" fill="black"/>
<path d="M206.881 159.936V160.965H201.52V159.936H203.62V153.435C203.62 153.228 203.627 153.014 203.641 152.793L201.955 154.223C201.891 154.273 201.826 154.305 201.762 154.319C201.697 154.333 201.635 154.335 201.575 154.326C201.52 154.317 201.469 154.299 201.423 154.271C201.382 154.239 201.347 154.206 201.32 154.174L200.898 153.587L203.869 151.024H204.967V159.936H206.881ZM215.448 156.005C215.448 156.871 215.353 157.621 215.165 158.257C214.98 158.892 214.725 159.42 214.398 159.839C214.075 160.253 213.693 160.562 213.251 160.765C212.814 160.967 212.341 161.069 211.835 161.069C211.328 161.069 210.854 160.967 210.412 160.765C209.974 160.562 209.594 160.253 209.272 159.839C208.95 159.42 208.696 158.892 208.512 158.257C208.328 157.621 208.236 156.871 208.236 156.005C208.236 155.139 208.328 154.388 208.512 153.753C208.696 153.113 208.95 152.585 209.272 152.171C209.594 151.752 209.974 151.441 210.412 151.238C210.854 151.036 211.328 150.934 211.835 150.934C212.341 150.934 212.814 151.036 213.251 151.238C213.693 151.441 214.075 151.752 214.398 152.171C214.725 152.585 214.98 153.113 215.165 153.753C215.353 154.388 215.448 155.139 215.448 156.005ZM214.052 156.005C214.052 155.259 213.99 154.635 213.866 154.133C213.746 153.631 213.583 153.228 213.375 152.924C213.173 152.615 212.938 152.397 212.671 152.268C212.404 152.139 212.125 152.074 211.835 152.074C211.545 152.074 211.266 152.139 210.999 152.268C210.732 152.397 210.495 152.615 210.287 152.924C210.085 153.228 209.924 153.631 209.804 154.133C209.684 154.635 209.624 155.259 209.624 156.005C209.624 156.751 209.684 157.375 209.804 157.877C209.924 158.379 210.085 158.782 210.287 159.086C210.495 159.39 210.732 159.606 210.999 159.735C211.266 159.864 211.545 159.929 211.835 159.929C212.125 159.929 212.404 159.864 212.671 159.735C212.938 159.606 213.173 159.39 213.375 159.086C213.583 158.782 213.746 158.379 213.866 157.877C213.99 157.375 214.052 156.751 214.052 156.005Z" fill="black"/>
<path d="M246.794 159.936V160.965H241.434V159.936H243.534V153.435C243.534 153.228 243.541 153.014 243.554 152.793L241.869 154.223C241.804 154.273 241.74 154.305 241.675 154.319C241.611 154.333 241.549 154.335 241.489 154.326C241.434 154.317 241.383 154.299 241.337 154.271C241.295 154.239 241.261 154.206 241.233 154.174L240.812 153.587L243.782 151.024H244.881V159.936H246.794ZM254.809 159.936V160.965H249.448V159.936H251.548V153.435C251.548 153.228 251.555 153.014 251.569 152.793L249.883 154.223C249.819 154.273 249.754 154.305 249.69 154.319C249.625 154.333 249.563 154.335 249.503 154.326C249.448 154.317 249.397 154.299 249.351 154.271C249.31 154.239 249.275 154.206 249.248 154.174L248.826 153.587L251.797 151.024H252.895V159.936H254.809Z" fill="black"/>
<path d="M286.708 159.936V160.965H281.347V159.936H283.447V153.435C283.447 153.228 283.454 153.014 283.468 152.793L281.782 154.223C281.718 154.273 281.653 154.305 281.589 154.319C281.524 154.333 281.462 154.335 281.402 154.326C281.347 154.317 281.296 154.299 281.25 154.271C281.209 154.239 281.174 154.206 281.147 154.174L280.725 153.587L283.696 151.024H284.794V159.936H286.708ZM294.474 159.687C294.621 159.687 294.736 159.731 294.819 159.818C294.902 159.901 294.943 160.012 294.943 160.15V160.965H288.284V160.502C288.284 160.41 288.302 160.313 288.339 160.212C288.376 160.106 288.438 160.012 288.526 159.929L291.662 156.785C291.924 156.523 292.162 156.27 292.373 156.026C292.585 155.782 292.765 155.54 292.912 155.3C293.06 155.056 293.172 154.807 293.251 154.554C293.334 154.301 293.375 154.034 293.375 153.753C293.375 153.477 293.331 153.235 293.244 153.027C293.156 152.816 293.037 152.641 292.885 152.502C292.733 152.364 292.553 152.261 292.346 152.192C292.139 152.123 291.915 152.088 291.676 152.088C291.436 152.088 291.215 152.123 291.013 152.192C290.815 152.261 290.637 152.357 290.481 152.482C290.324 152.606 290.193 152.753 290.087 152.924C289.981 153.094 289.905 153.278 289.859 153.477C289.794 153.652 289.712 153.769 289.61 153.829C289.513 153.889 289.371 153.903 289.182 153.87L288.477 153.746C288.542 153.285 288.668 152.88 288.857 152.53C289.046 152.18 289.283 151.888 289.569 151.653C289.854 151.413 290.181 151.234 290.55 151.114C290.923 150.994 291.323 150.934 291.752 150.934C292.185 150.934 292.583 150.999 292.947 151.128C293.315 151.252 293.633 151.434 293.9 151.673C294.167 151.913 294.377 152.205 294.529 152.551C294.681 152.892 294.757 153.278 294.757 153.711C294.757 154.08 294.701 154.423 294.591 154.741C294.485 155.054 294.338 155.353 294.149 155.639C293.965 155.924 293.748 156.203 293.499 156.475C293.255 156.742 292.995 157.013 292.719 157.29L290.204 159.86C290.398 159.809 290.591 159.767 290.785 159.735C290.983 159.703 291.169 159.687 291.344 159.687H294.474Z" fill="black"/>
<path d="M47.2266 198.314V199.343H41.8659V198.314H43.966V191.813C43.966 191.606 43.9729 191.392 43.9867 191.171L42.3012 192.601C42.2367 192.652 42.1722 192.684 42.1077 192.698C42.0432 192.711 41.9811 192.714 41.9212 192.705C41.8659 192.695 41.8153 192.677 41.7692 192.649C41.7278 192.617 41.6932 192.585 41.6656 192.553L41.2442 191.965L44.2147 189.402H45.3131V198.314H47.2266ZM49.0376 192.124C49.1067 191.664 49.2357 191.258 49.4245 190.908C49.6133 190.558 49.8505 190.266 50.136 190.031C50.4216 189.792 50.7485 189.612 51.117 189.492C51.49 189.373 51.8907 189.313 52.319 189.313C52.7473 189.313 53.1411 189.375 53.5003 189.499C53.8595 189.619 54.1658 189.792 54.4191 190.017C54.677 190.238 54.8773 190.505 55.0201 190.819C55.1628 191.132 55.2342 191.477 55.2342 191.855C55.2342 192.173 55.1951 192.454 55.1168 192.698C55.0385 192.942 54.9256 193.156 54.7783 193.34C54.6355 193.524 54.4605 193.681 54.2533 193.81C54.046 193.934 53.8134 194.038 53.5555 194.121C54.1865 194.296 54.6608 194.581 54.9786 194.977C55.2964 195.369 55.4553 195.866 55.4553 196.469C55.4553 196.935 55.3678 197.354 55.1928 197.727C55.0178 198.095 54.7783 198.408 54.4743 198.666C54.1704 198.92 53.8157 199.115 53.4105 199.253C53.0098 199.387 52.5815 199.454 52.1256 199.454C51.6051 199.454 51.1584 199.392 50.7854 199.267C50.4123 199.138 50.0946 198.961 49.8321 198.735C49.5696 198.505 49.3508 198.231 49.1758 197.913C49.0054 197.591 48.8603 197.239 48.7406 196.856L49.3278 196.608C49.4798 196.543 49.6271 196.525 49.7699 196.552C49.9127 196.58 50.0163 196.661 50.0808 196.794C50.1498 196.932 50.2281 197.089 50.3156 197.264C50.4077 197.434 50.5298 197.598 50.6818 197.754C50.8337 197.906 51.0226 198.035 51.2482 198.141C51.4785 198.247 51.7663 198.3 52.1117 198.3C52.4433 198.3 52.7335 198.247 52.9822 198.141C53.2309 198.031 53.4381 197.89 53.6039 197.72C53.7697 197.545 53.894 197.351 53.9769 197.14C54.0598 196.928 54.1013 196.718 54.1013 196.511C54.1013 196.253 54.069 196.016 54.0046 195.799C53.9401 195.583 53.8157 195.399 53.6315 195.247C53.4519 195.09 53.2009 194.968 52.8785 194.881C52.5562 194.793 52.1371 194.749 51.6213 194.749V193.768C52.045 193.764 52.4019 193.72 52.692 193.637C52.9868 193.554 53.2239 193.439 53.4036 193.292C53.5832 193.144 53.7121 192.969 53.7904 192.767C53.8733 192.564 53.9148 192.338 53.9148 192.09C53.9148 191.818 53.8733 191.581 53.7904 191.378C53.7075 191.176 53.5901 191.007 53.4381 190.874C53.2907 190.736 53.1134 190.634 52.9062 190.57C52.7035 190.501 52.4825 190.466 52.243 190.466C52.0035 190.466 51.7825 190.501 51.5798 190.57C51.3772 190.639 51.1976 190.736 51.041 190.86C50.8844 190.984 50.7531 191.132 50.6472 191.302C50.5413 191.473 50.4653 191.657 50.4193 191.855C50.3548 192.03 50.2719 192.147 50.1706 192.207C50.0739 192.267 49.9334 192.281 49.7492 192.249L49.0376 192.124Z" fill="black"/>
<path d="M87.1402 198.314V199.343H81.7795V198.314H83.8796V191.813C83.8796 191.606 83.8865 191.392 83.9003 191.171L82.2147 192.601C82.1502 192.652 82.0858 192.684 82.0213 192.698C81.9568 192.711 81.8946 192.714 81.8348 192.705C81.7795 192.695 81.7289 192.677 81.6828 192.649C81.6414 192.617 81.6068 192.585 81.5792 192.553L81.1578 191.965L84.1283 189.402H85.2267V198.314H87.1402ZM93.1099 195.723V191.855C93.1099 191.721 93.1122 191.581 93.1168 191.433C93.126 191.281 93.1421 191.125 93.1652 190.964L89.6904 195.723H93.1099ZM95.7281 195.723V196.504C95.7281 196.582 95.7027 196.649 95.6521 196.704C95.6014 196.76 95.53 196.787 95.4379 196.787H94.2912V199.343H93.1099V196.787H88.7578C88.6565 196.787 88.5713 196.76 88.5022 196.704C88.4331 196.644 88.387 196.571 88.364 196.483L88.2259 195.792L93.0201 189.416H94.2912V195.723H95.7281Z" fill="black"/>
<path d="M127.054 198.314V199.343H121.693V198.314H123.793V191.813C123.793 191.606 123.8 191.392 123.814 191.171L122.128 192.601C122.064 192.652 121.999 192.684 121.935 192.698C121.87 192.711 121.808 192.714 121.748 192.705C121.693 192.695 121.642 192.677 121.596 192.649C121.555 192.617 121.52 192.585 121.493 192.553L121.071 191.965L124.042 189.402H125.14V198.314H127.054ZM130.585 193.126C131.091 193.02 131.55 192.967 131.959 192.967C132.475 192.967 132.931 193.045 133.327 193.202C133.723 193.354 134.055 193.566 134.322 193.837C134.594 194.105 134.796 194.422 134.93 194.791C135.068 195.155 135.137 195.551 135.137 195.979C135.137 196.504 135.045 196.981 134.861 197.409C134.677 197.837 134.423 198.203 134.101 198.507C133.779 198.811 133.396 199.046 132.954 199.212C132.517 199.373 132.045 199.454 131.538 199.454C131.239 199.454 130.953 199.424 130.681 199.364C130.414 199.304 130.163 199.226 129.929 199.129C129.694 199.028 129.475 198.913 129.272 198.784C129.074 198.655 128.897 198.519 128.74 198.376L129.155 197.796C129.242 197.667 129.36 197.602 129.507 197.602C129.604 197.602 129.71 197.639 129.825 197.713C129.945 197.782 130.085 197.86 130.246 197.948C130.407 198.035 130.599 198.116 130.82 198.19C131.041 198.259 131.303 198.293 131.607 198.293C131.943 198.293 132.245 198.24 132.512 198.134C132.784 198.024 133.012 197.87 133.196 197.671C133.385 197.473 133.528 197.236 133.624 196.96C133.726 196.684 133.776 196.377 133.776 196.041C133.776 195.742 133.733 195.472 133.645 195.233C133.558 194.993 133.426 194.789 133.251 194.618C133.076 194.448 132.858 194.319 132.595 194.231C132.333 194.139 132.026 194.093 131.676 194.093C131.188 194.093 130.668 194.181 130.115 194.356L129.265 194.107L130.074 189.423H134.826V190.01C134.826 190.204 134.764 190.363 134.64 190.487C134.52 190.607 134.317 190.667 134.032 190.667H131.013L130.585 193.126Z" fill="black"/>
<path d="M166.967 198.314V199.343H161.607V198.314H163.707V191.813C163.707 191.606 163.714 191.392 163.727 191.171L162.042 192.601C161.977 192.652 161.913 192.684 161.848 192.698C161.784 192.711 161.722 192.714 161.662 192.705C161.607 192.695 161.556 192.677 161.51 192.649C161.468 192.617 161.434 192.585 161.406 192.553L160.985 191.965L163.955 189.402H165.054V198.314H166.967ZM171.915 198.328C172.232 198.328 172.52 198.277 172.778 198.176C173.036 198.07 173.257 197.927 173.441 197.747C173.625 197.568 173.768 197.354 173.87 197.105C173.971 196.856 174.021 196.587 174.021 196.297C174.021 195.979 173.971 195.696 173.87 195.447C173.773 195.194 173.635 194.98 173.455 194.805C173.28 194.63 173.068 194.496 172.819 194.404C172.571 194.312 172.294 194.266 171.991 194.266C171.673 194.266 171.387 194.321 171.134 194.432C170.881 194.538 170.664 194.683 170.485 194.867C170.305 195.046 170.167 195.258 170.07 195.502C169.973 195.746 169.925 196.002 169.925 196.269C169.925 196.573 169.969 196.852 170.056 197.105C170.144 197.358 170.273 197.575 170.443 197.754C170.613 197.934 170.821 198.074 171.065 198.176C171.314 198.277 171.597 198.328 171.915 198.328ZM171.279 193.112C171.201 193.213 171.122 193.312 171.044 193.409C170.97 193.501 170.899 193.593 170.83 193.686C171.051 193.543 171.295 193.432 171.562 193.354C171.834 193.276 172.126 193.236 172.44 193.236C172.831 193.236 173.204 193.301 173.559 193.43C173.913 193.559 174.224 193.748 174.491 193.996C174.763 194.245 174.977 194.554 175.134 194.922C175.29 195.291 175.369 195.714 175.369 196.193C175.369 196.649 175.286 197.077 175.12 197.478C174.954 197.874 174.719 198.22 174.415 198.514C174.116 198.804 173.757 199.035 173.338 199.205C172.918 199.371 172.453 199.454 171.942 199.454C171.436 199.454 170.977 199.373 170.567 199.212C170.162 199.051 169.814 198.823 169.524 198.528C169.239 198.229 169.018 197.87 168.861 197.45C168.705 197.027 168.626 196.557 168.626 196.041C168.626 195.599 168.721 195.134 168.909 194.646C169.103 194.153 169.407 193.628 169.821 193.071L172.301 189.748C172.37 189.656 172.467 189.58 172.592 189.52C172.716 189.455 172.859 189.423 173.02 189.423H174.222L171.279 193.112Z" fill="black"/>
<path d="M206.881 198.314V199.343H201.52V198.314H203.62V191.813C203.62 191.606 203.627 191.392 203.641 191.171L201.955 192.601C201.891 192.652 201.826 192.684 201.762 192.698C201.697 192.711 201.635 192.714 201.575 192.705C201.52 192.695 201.469 192.677 201.423 192.649C201.382 192.617 201.347 192.585 201.32 192.553L200.898 191.965L203.869 189.402H204.967V198.314H206.881ZM215.323 189.423V190.024C215.323 190.199 215.303 190.342 215.261 190.453C215.224 190.558 215.188 190.651 215.151 190.729L211.13 198.867C211.066 199 210.976 199.113 210.861 199.205C210.746 199.297 210.591 199.343 210.398 199.343H209.431L213.514 191.323C213.583 191.194 213.652 191.077 213.721 190.971C213.79 190.86 213.866 190.759 213.949 190.667H208.878C208.791 190.667 208.715 190.634 208.65 190.57C208.586 190.505 208.554 190.429 208.554 190.342V189.423H215.323Z" fill="black"/>
<path d="M246.794 198.314V199.343H241.434V198.314H243.534V191.813C243.534 191.606 243.541 191.392 243.554 191.171L241.869 192.601C241.804 192.652 241.74 192.684 241.675 192.698C241.611 192.711 241.549 192.714 241.489 192.705C241.434 192.695 241.383 192.677 241.337 192.649C241.295 192.617 241.261 192.585 241.233 192.553L240.812 191.965L243.782 189.402H244.881V198.314H246.794ZM251.755 198.383C252.069 198.383 252.347 198.339 252.591 198.252C252.835 198.164 253.043 198.042 253.213 197.886C253.383 197.724 253.512 197.533 253.6 197.312C253.687 197.091 253.731 196.849 253.731 196.587C253.731 196.265 253.678 195.988 253.572 195.758C253.466 195.523 253.324 195.332 253.144 195.185C252.964 195.033 252.755 194.922 252.515 194.853C252.276 194.779 252.022 194.742 251.755 194.742C251.484 194.742 251.228 194.779 250.989 194.853C250.749 194.922 250.54 195.033 250.36 195.185C250.18 195.332 250.038 195.523 249.932 195.758C249.83 195.988 249.78 196.265 249.78 196.587C249.78 196.849 249.823 197.091 249.911 197.312C249.998 197.533 250.127 197.724 250.298 197.886C250.468 198.042 250.675 198.164 250.919 198.252C251.164 198.339 251.442 198.383 251.755 198.383ZM251.755 190.349C251.47 190.349 251.219 190.393 251.002 190.48C250.791 190.563 250.613 190.678 250.47 190.826C250.328 190.973 250.219 191.143 250.146 191.337C250.077 191.53 250.042 191.737 250.042 191.958C250.042 192.175 250.072 192.387 250.132 192.594C250.196 192.797 250.295 192.979 250.429 193.14C250.567 193.296 250.744 193.423 250.961 193.52C251.177 193.616 251.442 193.665 251.755 193.665C252.064 193.665 252.326 193.616 252.543 193.52C252.764 193.423 252.941 193.296 253.075 193.14C253.213 192.979 253.312 192.797 253.372 192.594C253.436 192.387 253.469 192.175 253.469 191.958C253.469 191.737 253.432 191.53 253.358 191.337C253.289 191.143 253.183 190.973 253.04 190.826C252.898 190.678 252.718 190.563 252.501 190.48C252.29 190.393 252.041 190.349 251.755 190.349ZM253.241 194.169C253.858 194.353 254.325 194.65 254.643 195.06C254.965 195.47 255.127 195.988 255.127 196.615C255.127 197.047 255.044 197.439 254.878 197.789C254.717 198.139 254.486 198.438 254.187 198.687C253.892 198.931 253.538 199.12 253.123 199.253C252.709 199.387 252.253 199.454 251.755 199.454C251.258 199.454 250.802 199.387 250.388 199.253C249.973 199.12 249.616 198.931 249.317 198.687C249.022 198.438 248.792 198.139 248.626 197.789C248.465 197.439 248.384 197.047 248.384 196.615C248.384 195.988 248.543 195.47 248.861 195.06C249.183 194.65 249.653 194.353 250.27 194.169C249.759 193.976 249.374 193.688 249.116 193.306C248.859 192.919 248.73 192.46 248.73 191.931C248.73 191.562 248.801 191.219 248.944 190.902C249.091 190.579 249.296 190.301 249.559 190.066C249.826 189.831 250.146 189.647 250.519 189.513C250.892 189.379 251.304 189.313 251.755 189.313C252.207 189.313 252.619 189.379 252.992 189.513C253.365 189.647 253.683 189.831 253.945 190.066C254.212 190.301 254.417 190.579 254.56 190.902C254.707 191.219 254.781 191.562 254.781 191.931C254.781 192.46 254.652 192.919 254.394 193.306C254.136 193.688 253.752 193.976 253.241 194.169Z" fill="black"/>
<path d="M286.708 198.314V199.343H281.347V198.314H283.447V191.813C283.447 191.606 283.454 191.392 283.468 191.171L281.782 192.601C281.718 192.652 281.653 192.684 281.589 192.698C281.524 192.711 281.462 192.714 281.402 192.705C281.347 192.695 281.296 192.677 281.25 192.649C281.209 192.617 281.174 192.585 281.147 192.553L280.725 191.965L283.696 189.402H284.794V198.314H286.708ZM289.7 192.352C289.7 192.965 289.866 193.437 290.197 193.768C290.529 194.1 290.99 194.266 291.579 194.266C291.897 194.266 292.178 194.215 292.422 194.114C292.666 194.008 292.871 193.87 293.037 193.699C293.207 193.524 293.336 193.324 293.423 193.098C293.511 192.868 293.555 192.629 293.555 192.38C293.555 192.081 293.506 191.811 293.41 191.572C293.318 191.328 293.186 191.123 293.016 190.957C292.845 190.786 292.643 190.657 292.408 190.57C292.178 190.478 291.922 190.432 291.641 190.432C291.351 190.432 291.086 190.48 290.847 190.577C290.607 190.669 290.402 190.8 290.232 190.971C290.062 191.141 289.93 191.344 289.838 191.579C289.746 191.813 289.7 192.071 289.7 192.352ZM292.422 195.419C292.601 195.185 292.77 194.954 292.926 194.729C292.677 194.917 292.399 195.06 292.09 195.157C291.786 195.254 291.462 195.302 291.116 195.302C290.752 195.302 290.402 195.24 290.066 195.115C289.735 194.991 289.44 194.809 289.182 194.57C288.929 194.326 288.726 194.026 288.574 193.672C288.422 193.317 288.346 192.91 288.346 192.449C288.346 192.016 288.427 191.608 288.588 191.226C288.749 190.844 288.975 190.512 289.265 190.231C289.56 189.946 289.91 189.723 290.315 189.561C290.725 189.396 291.174 189.313 291.662 189.313C292.145 189.313 292.583 189.391 292.974 189.548C293.371 189.704 293.707 189.925 293.983 190.211C294.259 190.492 294.474 190.83 294.625 191.226C294.777 191.622 294.853 192.058 294.853 192.532C294.853 192.822 294.826 193.098 294.771 193.361C294.72 193.623 294.644 193.879 294.543 194.128C294.446 194.376 294.326 194.623 294.183 194.867C294.045 195.106 293.886 195.353 293.707 195.606L291.323 199.025C291.259 199.118 291.165 199.194 291.04 199.253C290.92 199.313 290.782 199.343 290.626 199.343H289.389L292.422 195.419Z" fill="black"/>
<path d="M46.9779 236.444C47.1253 236.444 47.2404 236.487 47.3233 236.575C47.4062 236.658 47.4477 236.768 47.4477 236.906V237.722H40.7883V237.259C40.7883 237.167 40.8067 237.07 40.8435 236.969C40.8804 236.863 40.9426 236.768 41.0301 236.685L44.1663 233.542C44.4288 233.28 44.666 233.026 44.8779 232.782C45.0897 232.538 45.2693 232.296 45.4167 232.057C45.5641 231.813 45.6769 231.564 45.7552 231.311C45.8381 231.058 45.8796 230.79 45.8796 230.51C45.8796 230.233 45.8358 229.991 45.7483 229.784C45.6608 229.572 45.5411 229.397 45.3891 229.259C45.2371 229.121 45.0575 229.017 44.8502 228.948C44.643 228.879 44.4196 228.845 44.1802 228.845C43.9407 228.845 43.7196 228.879 43.517 228.948C43.3189 229.017 43.1416 229.114 42.9851 229.238C42.8285 229.363 42.6972 229.51 42.5913 229.681C42.4854 229.851 42.4094 230.035 42.3633 230.233C42.2988 230.408 42.216 230.526 42.1146 230.586C42.0179 230.645 41.8752 230.659 41.6863 230.627L40.9817 230.503C41.0462 230.042 41.1728 229.637 41.3616 229.287C41.5505 228.937 41.7876 228.644 42.0732 228.409C42.3587 228.17 42.6857 227.99 43.0541 227.871C43.4272 227.751 43.8278 227.691 44.2561 227.691C44.6891 227.691 45.0874 227.756 45.4512 227.884C45.8197 228.009 46.1375 228.191 46.4046 228.43C46.6717 228.67 46.8812 228.962 47.0332 229.308C47.1852 229.648 47.2612 230.035 47.2612 230.468C47.2612 230.837 47.2059 231.18 47.0954 231.497C46.9895 231.811 46.8421 232.11 46.6533 232.395C46.469 232.681 46.2526 232.96 46.0039 233.231C45.7598 233.498 45.4996 233.77 45.2233 234.047L42.7087 236.616C42.9022 236.566 43.0956 236.524 43.289 236.492C43.487 236.46 43.6736 236.444 43.8486 236.444H46.9779ZM55.7938 232.762C55.7938 233.627 55.6994 234.378 55.5105 235.014C55.3263 235.649 55.0707 236.177 54.7437 236.596C54.4214 237.01 54.0391 237.319 53.597 237.521C53.1595 237.724 52.6874 237.825 52.1808 237.825C51.6742 237.825 51.1999 237.724 50.7578 237.521C50.3202 237.319 49.9403 237.01 49.6179 236.596C49.2955 236.177 49.0422 235.649 48.858 235.014C48.6738 234.378 48.5817 233.627 48.5817 232.762C48.5817 231.896 48.6738 231.145 48.858 230.51C49.0422 229.869 49.2955 229.342 49.6179 228.928C49.9403 228.509 50.3202 228.198 50.7578 227.995C51.1999 227.792 51.6742 227.691 52.1808 227.691C52.6874 227.691 53.1595 227.792 53.597 227.995C54.0391 228.198 54.4214 228.509 54.7437 228.928C55.0707 229.342 55.3263 229.869 55.5105 230.51C55.6994 231.145 55.7938 231.896 55.7938 232.762ZM54.3983 232.762C54.3983 232.016 54.3362 231.391 54.2118 230.889C54.0921 230.388 53.9286 229.985 53.7213 229.681C53.5187 229.372 53.2838 229.153 53.0167 229.024C52.7496 228.895 52.471 228.831 52.1808 228.831C51.8907 228.831 51.6121 228.895 51.3449 229.024C51.0778 229.153 50.8407 229.372 50.6334 229.681C50.4308 229.985 50.2696 230.388 50.1498 230.889C50.0301 231.391 49.9702 232.016 49.9702 232.762C49.9702 233.508 50.0301 234.132 50.1498 234.634C50.2696 235.136 50.4308 235.539 50.6334 235.843C50.8407 236.147 51.0778 236.363 51.3449 236.492C51.6121 236.621 51.8907 236.685 52.1808 236.685C52.471 236.685 52.7496 236.621 53.0167 236.492C53.2838 236.363 53.5187 236.147 53.7213 235.843C53.9286 235.539 54.0921 235.136 54.2118 234.634C54.3362 234.132 54.3983 233.508 54.3983 232.762Z" fill="black"/>
<path d="M86.8915 236.444C87.0389 236.444 87.154 236.487 87.2369 236.575C87.3198 236.658 87.3613 236.768 87.3613 236.906V237.722H80.7018V237.259C80.7018 237.167 80.7203 237.07 80.7571 236.969C80.794 236.863 80.8561 236.768 80.9436 236.685L84.0799 233.542C84.3424 233.28 84.5796 233.026 84.7914 232.782C85.0033 232.538 85.1829 232.296 85.3303 232.057C85.4777 231.813 85.5905 231.564 85.6688 231.311C85.7517 231.058 85.7931 230.79 85.7931 230.51C85.7931 230.233 85.7494 229.991 85.6619 229.784C85.5744 229.572 85.4546 229.397 85.3026 229.259C85.1507 229.121 84.9711 229.017 84.7638 228.948C84.5566 228.879 84.3332 228.845 84.0937 228.845C83.8542 228.845 83.6332 228.879 83.4306 228.948C83.2325 229.017 83.0552 229.114 82.8986 229.238C82.742 229.363 82.6108 229.51 82.5049 229.681C82.3989 229.851 82.323 230.035 82.2769 230.233C82.2124 230.408 82.1295 230.526 82.0282 230.586C81.9315 230.645 81.7887 230.659 81.5999 230.627L80.8953 230.503C80.9598 230.042 81.0864 229.637 81.2752 229.287C81.464 228.937 81.7012 228.644 81.9868 228.409C82.2723 228.17 82.5993 227.99 82.9677 227.871C83.3407 227.751 83.7414 227.691 84.1697 227.691C84.6026 227.691 85.001 227.756 85.3648 227.884C85.7333 228.009 86.051 228.191 86.3181 228.43C86.5853 228.67 86.7948 228.962 86.9468 229.308C87.0988 229.648 87.1747 230.035 87.1747 230.468C87.1747 230.837 87.1195 231.18 87.009 231.497C86.903 231.811 86.7557 232.11 86.5668 232.395C86.3826 232.681 86.1662 232.96 85.9175 233.231C85.6734 233.498 85.4132 233.77 85.1369 234.047L82.6223 236.616C82.8157 236.566 83.0092 236.524 83.2026 236.492C83.4006 236.46 83.5871 236.444 83.7621 236.444H86.8915ZM95.1547 236.692V237.722H89.794V236.692H91.8941V230.192C91.8941 229.985 91.901 229.77 91.9148 229.549L90.2292 230.979C90.1647 231.03 90.1003 231.062 90.0358 231.076C89.9713 231.09 89.9091 231.092 89.8493 231.083C89.794 231.074 89.7433 231.055 89.6973 231.028C89.6558 230.995 89.6213 230.963 89.5937 230.931L89.1723 230.344L92.1428 227.781H93.2411V236.692H95.1547Z" fill="black"/>
<path d="M126.805 236.444C126.952 236.444 127.067 236.487 127.15 236.575C127.233 236.658 127.275 236.768 127.275 236.906V237.722H120.615V237.259C120.615 237.167 120.634 237.07 120.671 236.969C120.707 236.863 120.77 236.768 120.857 236.685L123.993 233.542C124.256 233.28 124.493 233.026 124.705 232.782C124.917 232.538 125.096 232.296 125.244 232.057C125.391 231.813 125.504 231.564 125.582 231.311C125.665 231.058 125.707 230.79 125.707 230.51C125.707 230.233 125.663 229.991 125.575 229.784C125.488 229.572 125.368 229.397 125.216 229.259C125.064 229.121 124.885 229.017 124.677 228.948C124.47 228.879 124.247 228.845 124.007 228.845C123.768 228.845 123.547 228.879 123.344 228.948C123.146 229.017 122.969 229.114 122.812 229.238C122.655 229.363 122.524 229.51 122.418 229.681C122.312 229.851 122.236 230.035 122.19 230.233C122.126 230.408 122.043 230.526 121.942 230.586C121.845 230.645 121.702 230.659 121.513 230.627L120.809 230.503C120.873 230.042 121 229.637 121.189 229.287C121.377 228.937 121.615 228.644 121.9 228.409C122.186 228.17 122.513 227.99 122.881 227.871C123.254 227.751 123.655 227.691 124.083 227.691C124.516 227.691 124.914 227.756 125.278 227.884C125.647 228.009 125.964 228.191 126.232 228.43C126.499 228.67 126.708 228.962 126.86 229.308C127.012 229.648 127.088 230.035 127.088 230.468C127.088 230.837 127.033 231.18 126.922 231.497C126.816 231.811 126.669 232.11 126.48 232.395C126.296 232.681 126.08 232.96 125.831 233.231C125.587 233.498 125.327 233.77 125.05 234.047L122.536 236.616C122.729 236.566 122.923 236.524 123.116 236.492C123.314 236.46 123.501 236.444 123.676 236.444H126.805ZM134.819 236.444C134.967 236.444 135.082 236.487 135.165 236.575C135.248 236.658 135.289 236.768 135.289 236.906V237.722H128.63V237.259C128.63 237.167 128.648 237.07 128.685 236.969C128.722 236.863 128.784 236.768 128.872 236.685L132.008 233.542C132.27 233.28 132.508 233.026 132.719 232.782C132.931 232.538 133.111 232.296 133.258 232.057C133.406 231.813 133.518 231.564 133.597 231.311C133.68 231.058 133.721 230.79 133.721 230.51C133.721 230.233 133.677 229.991 133.59 229.784C133.502 229.572 133.383 229.397 133.231 229.259C133.079 229.121 132.899 229.017 132.692 228.948C132.485 228.879 132.261 228.845 132.022 228.845C131.782 228.845 131.561 228.879 131.358 228.948C131.16 229.017 130.983 229.114 130.827 229.238C130.67 229.363 130.539 229.51 130.433 229.681C130.327 229.851 130.251 230.035 130.205 230.233C130.14 230.408 130.057 230.526 129.956 230.586C129.859 230.645 129.717 230.659 129.528 230.627L128.823 230.503C128.888 230.042 129.014 229.637 129.203 229.287C129.392 228.937 129.629 228.644 129.915 228.409C130.2 228.17 130.527 227.99 130.896 227.871C131.269 227.751 131.669 227.691 132.098 227.691C132.531 227.691 132.929 227.756 133.293 227.884C133.661 228.009 133.979 228.191 134.246 228.43C134.513 228.67 134.723 228.962 134.875 229.308C135.027 229.648 135.103 230.035 135.103 230.468C135.103 230.837 135.047 231.18 134.937 231.497C134.831 231.811 134.684 232.11 134.495 232.395C134.311 232.681 134.094 232.96 133.845 233.231C133.601 233.498 133.341 233.77 133.065 234.047L130.55 236.616C130.744 236.566 130.937 236.524 131.131 236.492C131.329 236.46 131.515 236.444 131.69 236.444H134.819Z" fill="black"/>
<path d="M166.719 236.444C166.866 236.444 166.981 236.487 167.064 236.575C167.147 236.658 167.188 236.768 167.188 236.906V237.722H160.529V237.259C160.529 237.167 160.547 237.07 160.584 236.969C160.621 236.863 160.683 236.768 160.771 236.685L163.907 233.542C164.169 233.28 164.407 233.026 164.618 232.782C164.83 232.538 165.01 232.296 165.157 232.057C165.305 231.813 165.418 231.564 165.496 231.311C165.579 231.058 165.62 230.79 165.62 230.51C165.62 230.233 165.576 229.991 165.489 229.784C165.401 229.572 165.282 229.397 165.13 229.259C164.978 229.121 164.798 229.017 164.591 228.948C164.384 228.879 164.16 228.845 163.921 228.845C163.681 228.845 163.46 228.879 163.258 228.948C163.06 229.017 162.882 229.114 162.726 229.238C162.569 229.363 162.438 229.51 162.332 229.681C162.226 229.851 162.15 230.035 162.104 230.233C162.039 230.408 161.957 230.526 161.855 230.586C161.759 230.645 161.616 230.659 161.427 230.627L160.722 230.503C160.787 230.042 160.913 229.637 161.102 229.287C161.291 228.937 161.528 228.644 161.814 228.409C162.099 228.17 162.426 227.99 162.795 227.871C163.168 227.751 163.568 227.691 163.997 227.691C164.43 227.691 164.828 227.756 165.192 227.884C165.56 228.009 165.878 228.191 166.145 228.43C166.412 228.67 166.622 228.962 166.774 229.308C166.926 229.648 167.002 230.035 167.002 230.468C167.002 230.837 166.947 231.18 166.836 231.497C166.73 231.811 166.583 232.11 166.394 232.395C166.21 232.681 165.993 232.96 165.744 233.231C165.5 233.498 165.24 233.77 164.964 234.047L162.449 236.616C162.643 236.566 162.836 236.524 163.03 236.492C163.228 236.46 163.414 236.444 163.589 236.444H166.719ZM168.778 230.503C168.847 230.042 168.976 229.637 169.165 229.287C169.354 228.937 169.591 228.644 169.877 228.409C170.162 228.17 170.489 227.99 170.858 227.871C171.231 227.751 171.631 227.691 172.06 227.691C172.488 227.691 172.882 227.753 173.241 227.878C173.6 227.997 173.906 228.17 174.16 228.396C174.418 228.617 174.618 228.884 174.761 229.197C174.903 229.51 174.975 229.856 174.975 230.233C174.975 230.551 174.936 230.832 174.857 231.076C174.779 231.32 174.666 231.534 174.519 231.718C174.376 231.903 174.201 232.059 173.994 232.188C173.787 232.313 173.554 232.416 173.296 232.499C173.927 232.674 174.401 232.96 174.719 233.356C175.037 233.747 175.196 234.245 175.196 234.848C175.196 235.313 175.108 235.732 174.933 236.105C174.758 236.474 174.519 236.787 174.215 237.045C173.911 237.298 173.556 237.494 173.151 237.632C172.75 237.765 172.322 237.832 171.866 237.832C171.346 237.832 170.899 237.77 170.526 237.646C170.153 237.517 169.835 237.339 169.573 237.114C169.31 236.883 169.091 236.609 168.916 236.292C168.746 235.969 168.601 235.617 168.481 235.235L169.068 234.986C169.22 234.922 169.368 234.903 169.51 234.931C169.653 234.958 169.757 235.039 169.821 235.173C169.89 235.311 169.969 235.467 170.056 235.642C170.148 235.813 170.27 235.976 170.422 236.133C170.574 236.285 170.763 236.414 170.989 236.52C171.219 236.626 171.507 236.678 171.852 236.678C172.184 236.678 172.474 236.626 172.723 236.52C172.971 236.409 173.179 236.269 173.344 236.098C173.51 235.923 173.635 235.73 173.718 235.518C173.8 235.306 173.842 235.097 173.842 234.889C173.842 234.631 173.81 234.394 173.745 234.178C173.681 233.961 173.556 233.777 173.372 233.625C173.193 233.469 172.942 233.346 172.619 233.259C172.297 233.171 171.878 233.128 171.362 233.128V232.147C171.786 232.142 172.142 232.098 172.433 232.016C172.727 231.933 172.965 231.817 173.144 231.67C173.324 231.523 173.453 231.348 173.531 231.145C173.614 230.942 173.655 230.717 173.655 230.468C173.655 230.196 173.614 229.959 173.531 229.757C173.448 229.554 173.331 229.386 173.179 229.252C173.031 229.114 172.854 229.013 172.647 228.948C172.444 228.879 172.223 228.845 171.984 228.845C171.744 228.845 171.523 228.879 171.32 228.948C171.118 229.017 170.938 229.114 170.782 229.238C170.625 229.363 170.494 229.51 170.388 229.681C170.282 229.851 170.206 230.035 170.16 230.233C170.095 230.408 170.012 230.526 169.911 230.586C169.814 230.645 169.674 230.659 169.49 230.627L168.778 230.503Z" fill="black"/>
<path d="M206.632 236.444C206.779 236.444 206.895 236.487 206.977 236.575C207.06 236.658 207.102 236.768 207.102 236.906V237.722H200.442V237.259C200.442 237.167 200.461 237.07 200.498 236.969C200.534 236.863 200.597 236.768 200.684 236.685L203.82 233.542C204.083 233.28 204.32 233.026 204.532 232.782C204.744 232.538 204.923 232.296 205.071 232.057C205.218 231.813 205.331 231.564 205.409 231.311C205.492 231.058 205.534 230.79 205.534 230.51C205.534 230.233 205.49 229.991 205.402 229.784C205.315 229.572 205.195 229.397 205.043 229.259C204.891 229.121 204.712 229.017 204.504 228.948C204.297 228.879 204.074 228.845 203.834 228.845C203.595 228.845 203.374 228.879 203.171 228.948C202.973 229.017 202.796 229.114 202.639 229.238C202.483 229.363 202.351 229.51 202.245 229.681C202.139 229.851 202.063 230.035 202.017 230.233C201.953 230.408 201.87 230.526 201.769 230.586C201.672 230.645 201.529 230.659 201.34 230.627L200.636 230.503C200.7 230.042 200.827 229.637 201.016 229.287C201.205 228.937 201.442 228.644 201.727 228.409C202.013 228.17 202.34 227.99 202.708 227.871C203.081 227.751 203.482 227.691 203.91 227.691C204.343 227.691 204.741 227.756 205.105 227.884C205.474 228.009 205.792 228.191 206.059 228.43C206.326 228.67 206.535 228.962 206.687 229.308C206.839 229.648 206.915 230.035 206.915 230.468C206.915 230.837 206.86 231.18 206.749 231.497C206.644 231.811 206.496 232.11 206.307 232.395C206.123 232.681 205.907 232.96 205.658 233.231C205.414 233.498 205.154 233.77 204.877 234.047L202.363 236.616C202.556 236.566 202.75 236.524 202.943 236.492C203.141 236.46 203.328 236.444 203.503 236.444H206.632ZM212.85 234.102V230.233C212.85 230.1 212.853 229.959 212.857 229.812C212.866 229.66 212.883 229.503 212.906 229.342L209.431 234.102H212.85ZM215.469 234.102V234.882C215.469 234.961 215.443 235.027 215.393 235.083C215.342 235.138 215.271 235.166 215.178 235.166H214.032V237.722H212.85V235.166H208.498C208.397 235.166 208.312 235.138 208.243 235.083C208.174 235.023 208.128 234.949 208.104 234.862L207.966 234.171L212.761 227.795H214.032V234.102H215.469Z" fill="black"/>
<path d="M246.546 236.444C246.693 236.444 246.808 236.487 246.891 236.575C246.974 236.658 247.015 236.768 247.015 236.906V237.722H240.356V237.259C240.356 237.167 240.374 237.07 240.411 236.969C240.448 236.863 240.51 236.768 240.598 236.685L243.734 233.542C243.996 233.28 244.234 233.026 244.446 232.782C244.657 232.538 244.837 232.296 244.984 232.057C245.132 231.813 245.245 231.564 245.323 231.311C245.406 231.058 245.447 230.79 245.447 230.51C245.447 230.233 245.403 229.991 245.316 229.784C245.228 229.572 245.109 229.397 244.957 229.259C244.805 229.121 244.625 229.017 244.418 228.948C244.211 228.879 243.987 228.845 243.748 228.845C243.508 228.845 243.287 228.879 243.085 228.948C242.887 229.017 242.709 229.114 242.553 229.238C242.396 229.363 242.265 229.51 242.159 229.681C242.053 229.851 241.977 230.035 241.931 230.233C241.866 230.408 241.784 230.526 241.682 230.586C241.586 230.645 241.443 230.659 241.254 230.627L240.549 230.503C240.614 230.042 240.74 229.637 240.929 229.287C241.118 228.937 241.355 228.644 241.641 228.409C241.926 228.17 242.253 227.99 242.622 227.871C242.995 227.751 243.395 227.691 243.824 227.691C244.257 227.691 244.655 227.756 245.019 227.884C245.387 228.009 245.705 228.191 245.972 228.43C246.239 228.67 246.449 228.962 246.601 229.308C246.753 229.648 246.829 230.035 246.829 230.468C246.829 230.837 246.774 231.18 246.663 231.497C246.557 231.811 246.41 232.11 246.221 232.395C246.037 232.681 245.82 232.96 245.572 233.231C245.327 233.498 245.067 233.77 244.791 234.047L242.276 236.616C242.47 236.566 242.663 236.524 242.857 236.492C243.055 236.46 243.241 236.444 243.416 236.444H246.546ZM250.325 231.504C250.832 231.398 251.29 231.345 251.7 231.345C252.216 231.345 252.672 231.424 253.068 231.58C253.464 231.732 253.796 231.944 254.063 232.216C254.334 232.483 254.537 232.801 254.671 233.169C254.809 233.533 254.878 233.929 254.878 234.357C254.878 234.882 254.786 235.359 254.602 235.787C254.417 236.216 254.164 236.582 253.842 236.886C253.519 237.19 253.137 237.425 252.695 237.59C252.257 237.752 251.785 237.832 251.279 237.832C250.979 237.832 250.694 237.802 250.422 237.742C250.155 237.682 249.904 237.604 249.669 237.507C249.434 237.406 249.215 237.291 249.013 237.162C248.815 237.033 248.638 236.897 248.481 236.754L248.895 236.174C248.983 236.045 249.1 235.981 249.248 235.981C249.344 235.981 249.45 236.018 249.565 236.091C249.685 236.16 249.826 236.239 249.987 236.326C250.148 236.414 250.339 236.494 250.56 236.568C250.781 236.637 251.044 236.672 251.348 236.672C251.684 236.672 251.986 236.619 252.253 236.513C252.524 236.402 252.752 236.248 252.937 236.05C253.125 235.852 253.268 235.615 253.365 235.338C253.466 235.062 253.517 234.756 253.517 234.42C253.517 234.12 253.473 233.851 253.386 233.611C253.298 233.372 253.167 233.167 252.992 232.996C252.817 232.826 252.598 232.697 252.336 232.61C252.073 232.518 251.767 232.471 251.417 232.471C250.929 232.471 250.408 232.559 249.856 232.734L249.006 232.485L249.814 227.802H254.567V228.389C254.567 228.582 254.505 228.741 254.38 228.865C254.261 228.985 254.058 229.045 253.773 229.045H250.754L250.325 231.504Z" fill="black"/>
<path d="M286.459 236.444C286.606 236.444 286.722 236.487 286.804 236.575C286.887 236.658 286.929 236.768 286.929 236.906V237.722H280.269V237.259C280.269 237.167 280.288 237.07 280.325 236.969C280.361 236.863 280.424 236.768 280.511 236.685L283.647 233.542C283.91 233.28 284.147 233.026 284.359 232.782C284.571 232.538 284.75 232.296 284.898 232.057C285.045 231.813 285.158 231.564 285.236 231.311C285.319 231.058 285.361 230.79 285.361 230.51C285.361 230.233 285.317 229.991 285.229 229.784C285.142 229.572 285.022 229.397 284.87 229.259C284.718 229.121 284.539 229.017 284.331 228.948C284.124 228.879 283.901 228.845 283.661 228.845C283.422 228.845 283.201 228.879 282.998 228.948C282.8 229.017 282.623 229.114 282.466 229.238C282.31 229.363 282.178 229.51 282.072 229.681C281.966 229.851 281.89 230.035 281.844 230.233C281.78 230.408 281.697 230.526 281.596 230.586C281.499 230.645 281.356 230.659 281.167 230.627L280.463 230.503C280.527 230.042 280.654 229.637 280.843 229.287C281.032 228.937 281.269 228.644 281.554 228.409C281.84 228.17 282.167 227.99 282.535 227.871C282.908 227.751 283.309 227.691 283.737 227.691C284.17 227.691 284.569 227.756 284.932 227.884C285.301 228.009 285.619 228.191 285.886 228.43C286.153 228.67 286.362 228.962 286.514 229.308C286.666 229.648 286.742 230.035 286.742 230.468C286.742 230.837 286.687 231.18 286.576 231.497C286.471 231.811 286.323 232.11 286.134 232.395C285.95 232.681 285.734 232.96 285.485 233.231C285.241 233.498 284.981 233.77 284.704 234.047L282.19 236.616C282.383 236.566 282.577 236.524 282.77 236.492C282.968 236.46 283.155 236.444 283.33 236.444H286.459ZM291.655 236.706C291.973 236.706 292.261 236.655 292.519 236.554C292.776 236.448 292.997 236.305 293.182 236.126C293.366 235.946 293.509 235.732 293.61 235.483C293.711 235.235 293.762 234.965 293.762 234.675C293.762 234.357 293.711 234.074 293.61 233.825C293.513 233.572 293.375 233.358 293.196 233.183C293.02 233.008 292.809 232.874 292.56 232.782C292.311 232.69 292.035 232.644 291.731 232.644C291.413 232.644 291.128 232.699 290.874 232.81C290.621 232.916 290.405 233.061 290.225 233.245C290.045 233.425 289.907 233.637 289.811 233.881C289.714 234.125 289.665 234.38 289.665 234.648C289.665 234.951 289.709 235.23 289.797 235.483C289.884 235.737 290.013 235.953 290.184 236.133C290.354 236.312 290.561 236.453 290.805 236.554C291.054 236.655 291.337 236.706 291.655 236.706ZM291.019 231.491C290.941 231.592 290.863 231.691 290.785 231.788C290.711 231.88 290.64 231.972 290.57 232.064C290.791 231.921 291.036 231.811 291.303 231.732C291.574 231.654 291.867 231.615 292.18 231.615C292.571 231.615 292.945 231.679 293.299 231.808C293.654 231.937 293.965 232.126 294.232 232.375C294.503 232.623 294.718 232.932 294.874 233.3C295.031 233.669 295.109 234.093 295.109 234.572C295.109 235.027 295.026 235.456 294.86 235.856C294.695 236.252 294.46 236.598 294.156 236.893C293.856 237.183 293.497 237.413 293.078 237.583C292.659 237.749 292.194 237.832 291.683 237.832C291.176 237.832 290.718 237.752 290.308 237.59C289.903 237.429 289.555 237.201 289.265 236.906C288.979 236.607 288.758 236.248 288.602 235.829C288.445 235.405 288.367 234.935 288.367 234.42C288.367 233.977 288.461 233.512 288.65 233.024C288.843 232.531 289.147 232.006 289.562 231.449L292.042 228.126C292.111 228.034 292.208 227.958 292.332 227.898C292.456 227.834 292.599 227.802 292.76 227.802H293.962L291.019 231.491Z" fill="black"/>
<path d="M46.9779 274.822C47.1253 274.822 47.2404 274.866 47.3233 274.953C47.4062 275.036 47.4477 275.147 47.4477 275.285V276.1H40.7883V275.637C40.7883 275.545 40.8067 275.448 40.8435 275.347C40.8804 275.241 40.9426 275.147 41.0301 275.064L44.1663 271.921C44.4288 271.658 44.666 271.405 44.8779 271.161C45.0897 270.917 45.2693 270.675 45.4167 270.435C45.5641 270.191 45.6769 269.943 45.7552 269.689C45.8381 269.436 45.8796 269.169 45.8796 268.888C45.8796 268.612 45.8358 268.37 45.7483 268.163C45.6608 267.951 45.5411 267.776 45.3891 267.638C45.2371 267.499 45.0575 267.396 44.8502 267.327C44.643 267.258 44.4196 267.223 44.1802 267.223C43.9407 267.223 43.7196 267.258 43.517 267.327C43.3189 267.396 43.1416 267.493 42.9851 267.617C42.8285 267.741 42.6972 267.889 42.5913 268.059C42.4854 268.229 42.4094 268.414 42.3633 268.612C42.2988 268.787 42.216 268.904 42.1146 268.964C42.0179 269.024 41.8752 269.038 41.6863 269.005L40.9817 268.881C41.0462 268.42 41.1728 268.015 41.3616 267.665C41.5505 267.315 41.7876 267.023 42.0732 266.788C42.3587 266.548 42.6857 266.369 43.0541 266.249C43.4272 266.129 43.8278 266.069 44.2561 266.069C44.6891 266.069 45.0874 266.134 45.4512 266.263C45.8197 266.387 46.1375 266.569 46.4046 266.809C46.6717 267.048 46.8812 267.341 47.0332 267.686C47.1852 268.027 47.2612 268.414 47.2612 268.846C47.2612 269.215 47.2059 269.558 47.0954 269.876C46.9895 270.189 46.8421 270.488 46.6533 270.774C46.469 271.059 46.2526 271.338 46.0039 271.61C45.7598 271.877 45.4996 272.149 45.2233 272.425L42.7087 274.995C42.9022 274.944 43.0956 274.903 43.289 274.87C43.487 274.838 43.6736 274.822 43.8486 274.822H46.9779ZM55.6694 266.18V266.781C55.6694 266.956 55.6487 267.099 55.6072 267.209C55.5704 267.315 55.5336 267.407 55.4967 267.486L51.4762 275.623C51.4117 275.757 51.3219 275.87 51.2068 275.962C51.0916 276.054 50.9374 276.1 50.7439 276.1H49.7768L53.8595 268.08C53.9286 267.951 53.9977 267.833 54.0667 267.727C54.1358 267.617 54.2118 267.516 54.2947 267.423H49.2242C49.1367 267.423 49.0607 267.391 48.9962 267.327C48.9317 267.262 48.8995 267.186 48.8995 267.099V266.18H55.6694Z" fill="black"/>
<path d="M86.8915 274.822C87.0389 274.822 87.154 274.866 87.2369 274.953C87.3198 275.036 87.3613 275.147 87.3613 275.285V276.1H80.7018V275.637C80.7018 275.545 80.7203 275.448 80.7571 275.347C80.794 275.241 80.8561 275.147 80.9436 275.064L84.0799 271.921C84.3424 271.658 84.5796 271.405 84.7914 271.161C85.0033 270.917 85.1829 270.675 85.3303 270.435C85.4777 270.191 85.5905 269.943 85.6688 269.689C85.7517 269.436 85.7931 269.169 85.7931 268.888C85.7931 268.612 85.7494 268.37 85.6619 268.163C85.5744 267.951 85.4546 267.776 85.3026 267.638C85.1507 267.499 84.9711 267.396 84.7638 267.327C84.5566 267.258 84.3332 267.223 84.0937 267.223C83.8542 267.223 83.6332 267.258 83.4306 267.327C83.2325 267.396 83.0552 267.493 82.8986 267.617C82.742 267.741 82.6108 267.889 82.5049 268.059C82.3989 268.229 82.323 268.414 82.2769 268.612C82.2124 268.787 82.1295 268.904 82.0282 268.964C81.9315 269.024 81.7887 269.038 81.5999 269.005L80.8953 268.881C80.9598 268.42 81.0864 268.015 81.2752 267.665C81.464 267.315 81.7012 267.023 81.9868 266.788C82.2723 266.548 82.5993 266.369 82.9677 266.249C83.3407 266.129 83.7414 266.069 84.1697 266.069C84.6026 266.069 85.001 266.134 85.3648 266.263C85.7333 266.387 86.051 266.569 86.3181 266.809C86.5853 267.048 86.7948 267.341 86.9468 267.686C87.0988 268.027 87.1747 268.414 87.1747 268.846C87.1747 269.215 87.1195 269.558 87.009 269.876C86.903 270.189 86.7557 270.488 86.5668 270.774C86.3826 271.059 86.1662 271.338 85.9175 271.61C85.6734 271.877 85.4132 272.149 85.1369 272.425L82.6223 274.995C82.8157 274.944 83.0092 274.903 83.2026 274.87C83.4006 274.838 83.5871 274.822 83.7621 274.822H86.8915ZM92.1013 275.14C92.4145 275.14 92.6931 275.096 92.9372 275.009C93.1813 274.921 93.3885 274.799 93.5589 274.642C93.7293 274.481 93.8583 274.29 93.9458 274.069C94.0333 273.848 94.077 273.606 94.077 273.344C94.077 273.021 94.0241 272.745 93.9181 272.515C93.8122 272.28 93.6694 272.089 93.4898 271.941C93.3102 271.789 93.1007 271.679 92.8612 271.61C92.6217 271.536 92.3684 271.499 92.1013 271.499C91.8296 271.499 91.574 271.536 91.3345 271.61C91.095 271.679 90.8855 271.789 90.7059 271.941C90.5263 272.089 90.3835 272.28 90.2776 272.515C90.1762 272.745 90.1256 273.021 90.1256 273.344C90.1256 273.606 90.1693 273.848 90.2568 274.069C90.3443 274.29 90.4733 274.481 90.6437 274.642C90.8141 274.799 91.0213 274.921 91.2654 275.009C91.5095 275.096 91.7881 275.14 92.1013 275.14ZM92.1013 267.106C91.8158 267.106 91.5648 267.149 91.3483 267.237C91.1365 267.32 90.9592 267.435 90.8164 267.582C90.6736 267.73 90.5654 267.9 90.4917 268.094C90.4226 268.287 90.3881 268.494 90.3881 268.715C90.3881 268.932 90.418 269.144 90.4779 269.351C90.5424 269.553 90.6414 269.735 90.775 269.897C90.9131 270.053 91.0904 270.18 91.3069 270.276C91.5233 270.373 91.7881 270.422 92.1013 270.422C92.4099 270.422 92.6724 270.373 92.8888 270.276C93.1099 270.18 93.2872 270.053 93.4208 269.897C93.5589 269.735 93.6579 269.553 93.7178 269.351C93.7823 269.144 93.8145 268.932 93.8145 268.715C93.8145 268.494 93.7777 268.287 93.704 268.094C93.6349 267.9 93.529 267.73 93.3862 267.582C93.2434 267.435 93.0638 267.32 92.8474 267.237C92.6355 267.149 92.3868 267.106 92.1013 267.106ZM93.5866 270.926C94.2037 271.11 94.6711 271.407 94.9889 271.817C95.3113 272.227 95.4725 272.745 95.4725 273.371C95.4725 273.804 95.3896 274.196 95.2238 274.546C95.0626 274.896 94.8323 275.195 94.533 275.444C94.2382 275.688 93.8836 275.877 93.4691 276.01C93.0546 276.144 92.5987 276.211 92.1013 276.211C91.6039 276.211 91.148 276.144 90.7335 276.01C90.319 275.877 89.9621 275.688 89.6627 275.444C89.368 275.195 89.1377 274.896 88.9719 274.546C88.8107 274.196 88.7302 273.804 88.7302 273.371C88.7302 272.745 88.889 272.227 89.2068 271.817C89.5292 271.407 89.9989 271.11 90.6161 270.926C90.1049 270.732 89.7203 270.445 89.4624 270.062C89.2045 269.675 89.0756 269.217 89.0756 268.688C89.0756 268.319 89.1469 267.976 89.2897 267.658C89.4371 267.336 89.642 267.057 89.9045 266.822C90.1716 266.588 90.4917 266.403 90.8648 266.27C91.2378 266.136 91.65 266.069 92.1013 266.069C92.5526 266.069 92.9648 266.136 93.3379 266.27C93.7109 266.403 94.0287 266.588 94.2912 266.822C94.5583 267.057 94.7632 267.336 94.906 267.658C95.0534 267.976 95.1271 268.319 95.1271 268.688C95.1271 269.217 94.9981 269.675 94.7402 270.062C94.4823 270.445 94.0978 270.732 93.5866 270.926Z" fill="black"/>
</g>
<rect x="1" y="1" width="322" height="319" rx="13" stroke="#1D3599" stroke-width="2"/>
<defs>
<clipPath id="clip0_12_535">
<rect x="2" y="2" width="320" height="317" rx="12" fill="white"/>
</clipPath>
</defs>
</svg>
