<svg width="17" height="17" viewBox="0 0 17 17" fill="none" xmlns="http://www.w3.org/2000/svg">
<g clip-path="url(#clip0_1_241)">
<path d="M14.3441 1.5938H12.7504V0.531745C12.7541 0.459686 12.7431 0.387618 12.7182 0.319928C12.6932 0.252239 12.6547 0.190343 12.605 0.138011C12.5553 0.0856796 12.4955 0.0440067 12.4292 0.0155294C12.3629 -0.0129479 12.2915 -0.0276337 12.2193 -0.0276337C12.1472 -0.0276337 12.0758 -0.0129479 12.0095 0.0155294C11.9432 0.0440067 11.8834 0.0856796 11.8337 0.138011C11.784 0.190343 11.7455 0.252239 11.7205 0.319928C11.6955 0.387618 11.6846 0.459686 11.6883 0.531745V1.5938H5.31313V0.531745C5.31313 0.390718 5.2571 0.255467 5.15738 0.155745C5.05766 0.0560239 4.92241 1.39326e-06 4.78138 1.39326e-06C4.64036 1.39326e-06 4.5051 0.0560239 4.40538 0.155745C4.30566 0.255467 4.24964 0.390718 4.24964 0.531745V1.5938H2.65584C1.9517 1.59456 1.27662 1.87461 0.77872 2.37252C0.280817 2.87042 0.000760822 3.5455 0 4.24964V14.3442C0.000760822 15.0483 0.280817 15.7234 0.77872 16.2213C1.27662 16.7192 1.9517 16.9992 2.65584 17H14.3441C15.0483 16.9992 15.7234 16.7192 16.2213 16.2213C16.7192 15.7234 16.9992 15.0483 17 14.3442V4.24964C16.9992 3.5455 16.7192 2.87042 16.2213 2.37252C15.7234 1.87461 15.0483 1.59456 14.3441 1.5938ZM2.65584 2.65585H4.24964V3.18759C4.24964 3.32862 4.30566 3.46387 4.40538 3.56359C4.5051 3.66331 4.64036 3.71933 4.78138 3.71933C4.92241 3.71933 5.05766 3.66331 5.15738 3.56359C5.2571 3.46387 5.31313 3.32862 5.31313 3.18759V2.65585H11.6883V3.18759C11.6846 3.25965 11.6955 3.33172 11.7205 3.39941C11.7455 3.4671 11.784 3.52899 11.8337 3.58132C11.8834 3.63366 11.9432 3.67533 12.0095 3.70381C12.0758 3.73228 12.1472 3.74697 12.2193 3.74697C12.2915 3.74697 12.3629 3.73228 12.4292 3.70381C12.4955 3.67533 12.5553 3.63366 12.605 3.58132C12.6547 3.52899 12.6932 3.4671 12.7182 3.39941C12.7431 3.33172 12.7541 3.25965 12.7504 3.18759V2.65585H14.3441C14.7667 2.65623 15.1719 2.82427 15.4707 3.12308C15.7695 3.42189 15.9376 3.82706 15.9379 4.24964V5.31744C15.9236 5.31744 15.9121 5.31744 15.8977 5.31744H1.09942C1.08504 5.31744 1.07355 5.31744 1.05918 5.31744V4.24677C1.0607 3.8243 1.22959 3.41966 1.52886 3.12147C1.82813 2.82327 2.23337 2.65584 2.65584 2.65585ZM14.3441 15.9379H2.65584C2.23326 15.9376 1.8281 15.7695 1.52928 15.4707C1.23047 15.1719 1.06243 14.7667 1.06205 14.3442V6.36656C1.07531 6.37012 1.08874 6.37299 1.10229 6.37518H15.902C15.9156 6.37299 15.929 6.37012 15.9423 6.36656V14.3442C15.9421 14.5538 15.9006 14.7613 15.8201 14.9548C15.7397 15.1484 15.6219 15.3242 15.4735 15.4722C15.3251 15.6203 15.149 15.7376 14.9552 15.8175C14.7614 15.8974 14.5538 15.9383 14.3441 15.9379Z" fill="#989DB5"/>
<path d="M4.78134 7.96898H3.71929C3.64723 7.96523 3.57517 7.97619 3.50748 8.00118C3.43979 8.02617 3.37789 8.06468 3.32556 8.11436C3.27322 8.16404 3.23155 8.22385 3.20308 8.29015C3.1746 8.35645 3.15991 8.42785 3.15991 8.50001C3.15991 8.57216 3.1746 8.64357 3.20308 8.70987C3.23155 8.77617 3.27322 8.83598 3.32556 8.88565C3.37789 8.93533 3.43979 8.97384 3.50748 8.99883C3.57517 9.02383 3.64723 9.03478 3.71929 9.03103H4.78134C4.8534 9.03478 4.92547 9.02383 4.99316 8.99883C5.06085 8.97384 5.12274 8.93533 5.17507 8.88565C5.2274 8.83598 5.26908 8.77617 5.29756 8.70987C5.32603 8.64357 5.34072 8.57216 5.34072 8.50001C5.34072 8.42785 5.32603 8.35645 5.29756 8.29015C5.26908 8.22385 5.2274 8.16404 5.17507 8.11436C5.12274 8.06468 5.06085 8.02617 4.99316 8.00118C4.92547 7.97619 4.8534 7.96523 4.78134 7.96898Z" fill="#989DB5"/>
<path d="M4.78129 10.6248H3.71925C3.57822 10.6248 3.44297 10.6808 3.34324 10.7806C3.24352 10.8803 3.1875 11.0155 3.1875 11.1566C3.1875 11.2976 3.24352 11.4328 3.34324 11.5326C3.44297 11.6323 3.57822 11.6883 3.71925 11.6883H4.78129C4.92232 11.6883 5.05757 11.6323 5.15729 11.5326C5.25701 11.4328 5.31304 11.2976 5.31304 11.1566C5.31304 11.0155 5.25701 10.8803 5.15729 10.7806C5.05757 10.6808 4.92232 10.6248 4.78129 10.6248Z" fill="#989DB5"/>
<path d="M4.78134 13.2821H3.71929C3.64723 13.2784 3.57517 13.2893 3.50748 13.3143C3.43979 13.3393 3.37789 13.3778 3.32556 13.4275C3.27322 13.4772 3.23155 13.537 3.20308 13.6033C3.1746 13.6696 3.15991 13.741 3.15991 13.8131C3.15991 13.8853 3.1746 13.9567 3.20308 14.023C3.23155 14.0893 3.27322 14.1491 3.32556 14.1988C3.37789 14.2485 3.43979 14.287 3.50748 14.312C3.57517 14.337 3.64723 14.3479 3.71929 14.3442H4.78134C4.8534 14.3479 4.92547 14.337 4.99316 14.312C5.06085 14.287 5.12274 14.2485 5.17507 14.1988C5.2274 14.1491 5.26908 14.0893 5.29756 14.023C5.32603 13.9567 5.34072 13.8853 5.34072 13.8131C5.34072 13.741 5.32603 13.6696 5.29756 13.6033C5.26908 13.537 5.2274 13.4772 5.17507 13.4275C5.12274 13.3778 5.06085 13.3393 4.99316 13.3143C4.92547 13.2893 4.8534 13.2784 4.78134 13.2821Z" fill="#989DB5"/>
<path d="M9.0311 7.96898H7.96904C7.89699 7.96523 7.82492 7.97619 7.75723 8.00118C7.68954 8.02617 7.62764 8.06468 7.57531 8.11436C7.52298 8.16404 7.48131 8.22385 7.45283 8.29015C7.42435 8.35645 7.40967 8.42785 7.40967 8.50001C7.40967 8.57216 7.42435 8.64357 7.45283 8.70987C7.48131 8.77617 7.52298 8.83598 7.57531 8.88565C7.62764 8.93533 7.68954 8.97384 7.75723 8.99883C7.82492 9.02383 7.89699 9.03478 7.96904 9.03103H9.0311C9.10316 9.03478 9.17523 9.02383 9.24291 8.99883C9.3106 8.97384 9.3725 8.93533 9.42483 8.88565C9.47716 8.83598 9.51884 8.77617 9.54731 8.70987C9.57579 8.64357 9.59047 8.57216 9.59047 8.50001C9.59047 8.42785 9.57579 8.35645 9.54731 8.29015C9.51884 8.22385 9.47716 8.16404 9.42483 8.11436C9.3725 8.06468 9.3106 8.02617 9.24291 8.00118C9.17523 7.97619 9.10316 7.96523 9.0311 7.96898Z" fill="#989DB5"/>
<path d="M9.03105 10.6248H7.969C7.82797 10.6248 7.69272 10.6808 7.593 10.7806C7.49328 10.8803 7.43726 11.0155 7.43726 11.1566C7.43726 11.2976 7.49328 11.4328 7.593 11.5326C7.69272 11.6323 7.82797 11.6883 7.969 11.6883H9.03105C9.17208 11.6883 9.30733 11.6323 9.40705 11.5326C9.50677 11.4328 9.5628 11.2976 9.5628 11.1566C9.5628 11.0155 9.50677 10.8803 9.40705 10.7806C9.30733 10.6808 9.17208 10.6248 9.03105 10.6248Z" fill="#989DB5"/>
<path d="M9.0311 13.2821H7.96904C7.89699 13.2784 7.82492 13.2893 7.75723 13.3143C7.68954 13.3393 7.62764 13.3778 7.57531 13.4275C7.52298 13.4772 7.48131 13.537 7.45283 13.6033C7.42435 13.6696 7.40967 13.741 7.40967 13.8131C7.40967 13.8853 7.42435 13.9567 7.45283 14.023C7.48131 14.0893 7.52298 14.1491 7.57531 14.1988C7.62764 14.2485 7.68954 14.287 7.75723 14.312C7.82492 14.337 7.89699 14.3479 7.96904 14.3442H9.0311C9.10316 14.3479 9.17523 14.337 9.24291 14.312C9.3106 14.287 9.3725 14.2485 9.42483 14.1988C9.47716 14.1491 9.51884 14.0893 9.54731 14.023C9.57579 13.9567 9.59047 13.8853 9.59047 13.8131C9.59047 13.741 9.57579 13.6696 9.54731 13.6033C9.51884 13.537 9.47716 13.4772 9.42483 13.4275C9.3725 13.3778 9.3106 13.3393 9.24291 13.3143C9.17523 13.2893 9.10316 13.2784 9.0311 13.2821Z" fill="#989DB5"/>
<path d="M13.2822 7.96898H12.2187C12.0826 7.97606 11.9545 8.0351 11.8607 8.13391C11.7669 8.23272 11.7146 8.36376 11.7146 8.5C11.7146 8.63625 11.7669 8.76729 11.8607 8.8661C11.9545 8.96491 12.0826 9.02395 12.2187 9.03103H13.2822C13.4183 9.02395 13.5464 8.96491 13.6402 8.8661C13.734 8.76729 13.7863 8.63625 13.7863 8.5C13.7863 8.36376 13.734 8.23272 13.6402 8.13391C13.5464 8.0351 13.4183 7.97606 13.2822 7.96898Z" fill="#989DB5"/>
<path d="M13.282 10.6248H12.2185C12.0775 10.6248 11.9422 10.6808 11.8425 10.7806C11.7428 10.8803 11.6868 11.0155 11.6868 11.1566C11.6868 11.2976 11.7428 11.4328 11.8425 11.5326C11.9422 11.6323 12.0775 11.6883 12.2185 11.6883H13.282C13.423 11.6883 13.5583 11.6323 13.658 11.5326C13.7577 11.4328 13.8137 11.2976 13.8137 11.1566C13.8137 11.0155 13.7577 10.8803 13.658 10.7806C13.5583 10.6808 13.423 10.6248 13.282 10.6248Z" fill="#989DB5"/>
<path d="M13.2822 13.2821H12.2187C12.0826 13.2892 11.9545 13.3482 11.8607 13.447C11.7669 13.5458 11.7146 13.6769 11.7146 13.8131C11.7146 13.9494 11.7669 14.0804 11.8607 14.1792C11.9545 14.278 12.0826 14.3371 12.2187 14.3442H13.2822C13.4183 14.3371 13.5464 14.278 13.6402 14.1792C13.734 14.0804 13.7863 13.9494 13.7863 13.8131C13.7863 13.6769 13.734 13.5458 13.6402 13.447C13.5464 13.3482 13.4183 13.2892 13.2822 13.2821Z" fill="#989DB5"/>
</g>
<defs>
<clipPath id="clip0_1_241">
<rect width="17" height="17" fill="white"/>
</clipPath>
</defs>
</svg>
