<svg width="100" height="100" viewBox="0 0 100 100" fill="none" xmlns="http://www.w3.org/2000/svg">
<circle cx="50" cy="50" r="49.5" fill="white" stroke="#1D3599"/>
<path d="M86.36 48.296C86.36 53.384 85.512 58.056 83.816 62.312C82.12 66.568 79.736 70.232 76.664 73.304C73.592 76.376 69.896 78.76 65.576 80.456C61.256 82.152 56.456 83 51.176 83H24.728V13.592H51.176C56.456 13.592 61.256 14.456 65.576 16.184C69.896 17.88 73.592 20.264 76.664 23.336C79.736 26.376 82.12 30.024 83.816 34.28C85.512 38.536 86.36 43.208 86.36 48.296ZM73.112 48.296C73.112 44.488 72.6 41.08 71.576 38.072C70.584 35.032 69.128 32.472 67.208 30.392C65.32 28.28 63.016 26.664 60.296 25.544C57.608 24.424 54.568 23.864 51.176 23.864H37.688V72.728H51.176C54.568 72.728 57.608 72.168 60.296 71.048C63.016 69.928 65.32 68.328 67.208 66.248C69.128 64.136 70.584 61.576 71.576 58.568C72.6 55.528 73.112 52.104 73.112 48.296Z" fill="#D1DAFF"/>
<path d="M83.816 62.312L82.887 61.9418L83.816 62.312ZM76.664 73.304L75.9569 72.5969L76.664 73.304ZM65.576 80.456L65.9414 81.3868L65.576 80.456ZM24.728 83H23.728V84H24.728V83ZM24.728 13.592V12.592H23.728V13.592H24.728ZM65.576 16.184L65.2046 17.1125L65.2106 17.1148L65.576 16.184ZM76.664 23.336L75.9569 24.0431L75.9606 24.0468L76.664 23.336ZM83.816 34.28L84.745 33.9098V33.9098L83.816 34.28ZM71.576 38.072L70.6253 38.3822L70.6294 38.3943L71.576 38.072ZM67.208 30.392L66.4625 31.0585L66.4678 31.0644L66.4732 31.0703L67.208 30.392ZM60.296 25.544L59.9114 26.4671L59.9153 26.4687L60.296 25.544ZM37.688 23.864V22.864H36.688V23.864H37.688ZM37.688 72.728H36.688V73.728H37.688V72.728ZM60.296 71.048L59.9152 70.1233L59.9114 70.1249L60.296 71.048ZM67.208 66.248L66.4681 65.5753L66.4675 65.5759L67.208 66.248ZM71.576 58.568L70.6283 58.2488L70.6263 58.2548L71.576 58.568ZM85.36 48.296C85.36 53.2712 84.5312 57.8159 82.887 61.9418L84.745 62.6822C86.4928 58.2961 87.36 53.4968 87.36 48.296H85.36ZM82.887 61.9418C81.2385 66.0786 78.9276 69.6262 75.9569 72.5969L77.3711 74.0111C80.5444 70.8378 83.0015 67.0574 84.745 62.6822L82.887 61.9418ZM75.9569 72.5969C72.9887 75.5651 69.4114 77.876 65.2106 79.5252L65.9414 81.3868C70.3806 79.644 74.1953 77.1869 77.3711 74.0111L75.9569 72.5969ZM65.2106 79.5252C61.0219 81.1696 56.348 82 51.176 82V84C56.564 84 61.4901 83.1344 65.9414 81.3868L65.2106 79.5252ZM51.176 82H24.728V84H51.176V82ZM25.728 83V13.592H23.728V83H25.728ZM24.728 14.592H51.176V12.592H24.728V14.592ZM51.176 14.592C56.3458 14.592 61.0176 15.4377 65.2046 17.1125L65.9474 15.2555C61.4944 13.4743 56.5662 12.592 51.176 12.592V14.592ZM65.2106 17.1148C69.4114 18.764 72.9887 21.0749 75.9569 24.0431L77.3711 22.6289C74.1953 19.4531 70.3806 16.996 65.9414 15.2532L65.2106 17.1148ZM75.9606 24.0468C78.929 26.9842 81.2389 30.5142 82.887 34.6502L84.745 33.9098C83.0011 29.5338 80.543 25.7677 77.3674 22.6252L75.9606 24.0468ZM82.887 34.6502C84.5312 38.7761 85.36 43.3208 85.36 48.296H87.36C87.36 43.0952 86.4928 38.2959 84.745 33.9098L82.887 34.6502ZM74.112 48.296C74.112 44.3995 73.5882 40.8798 72.5227 37.7497L70.6294 38.3943C71.6118 41.2802 72.112 44.5765 72.112 48.296H74.112ZM72.5267 37.7618C71.4958 34.6028 69.9723 31.9124 67.9428 29.7137L66.4732 31.0703C68.2837 33.0316 69.6722 35.4612 70.6253 38.3822L72.5267 37.7618ZM67.9535 29.7255C65.9611 27.4967 63.5308 25.7945 60.6768 24.6193L59.9153 26.4687C62.5012 27.5335 64.6789 29.0633 66.4625 31.0585L67.9535 29.7255ZM60.6806 24.6209C57.8524 23.4425 54.6785 22.864 51.176 22.864V24.864C54.4575 24.864 57.3636 25.4055 59.9114 26.4671L60.6806 24.6209ZM51.176 22.864H37.688V24.864H51.176V22.864ZM36.688 23.864V72.728H38.688V23.864H36.688ZM37.688 73.728H51.176V71.728H37.688V73.728ZM51.176 73.728C54.6785 73.728 57.8524 73.1495 60.6806 71.9711L59.9114 70.1249C57.3636 71.1865 54.4575 71.728 51.176 71.728V73.728ZM60.6768 71.9727C63.5273 70.7989 65.9561 69.1151 67.9485 66.9201L66.4675 65.5759C64.6839 67.5409 62.5047 69.0571 59.9153 70.1233L60.6768 71.9727ZM67.9479 66.9207C69.9722 64.694 71.4946 62.0077 72.5257 58.8812L70.6263 58.2548C69.6734 61.1443 68.2838 63.578 66.4681 65.5753L67.9479 66.9207ZM72.5237 58.8872C73.5881 55.7272 74.112 52.1928 74.112 48.296H72.112C72.112 52.0152 71.6119 55.3288 70.6283 58.2488L72.5237 58.8872Z" fill="#1D3599"/>
<path d="M45.704 46.616C48.136 46.616 50.248 46.312 52.04 45.704C53.864 45.096 55.352 44.264 56.504 43.208C57.688 42.12 58.568 40.84 59.144 39.368C59.72 37.896 60.008 36.28 60.008 34.52C60.008 31 58.84 28.296 56.504 26.408C54.2 24.52 50.664 23.576 45.896 23.576H37.64V46.616H45.704ZM78.92 83H67.256C65.048 83 63.448 82.136 62.456 80.408L47.864 58.184C47.32 57.352 46.712 56.76 46.04 56.408C45.4 56.056 44.44 55.88 43.16 55.88H37.64V83H24.728V13.592H45.896C50.6 13.592 54.632 14.088 57.992 15.08C61.384 16.04 64.152 17.4 66.296 19.16C68.472 20.92 70.072 23.032 71.096 25.496C72.12 27.928 72.632 30.616 72.632 33.56C72.632 35.896 72.28 38.104 71.576 40.184C70.904 42.264 69.912 44.152 68.6 45.848C67.32 47.544 65.72 49.032 63.8 50.312C61.912 51.592 59.752 52.6 57.32 53.336C58.152 53.816 58.92 54.392 59.624 55.064C60.328 55.704 60.968 56.472 61.544 57.368L78.92 83Z" fill="#D1DAFF"/>
<path d="M52.04 45.704L51.7238 44.7553L51.7187 44.757L52.04 45.704ZM56.504 43.208L57.1797 43.9452L57.1806 43.9443L56.504 43.208ZM56.504 26.408L55.8702 27.1815L55.8754 27.1857L56.504 26.408ZM37.64 23.576V22.576H36.64V23.576H37.64ZM37.64 46.616H36.64V47.616H37.64V46.616ZM78.92 83V84H80.806L79.7477 82.4389L78.92 83ZM62.456 80.408L63.3233 79.9101L63.3083 79.8842L63.2919 79.8591L62.456 80.408ZM47.864 58.184L47.027 58.7312L47.0281 58.7329L47.864 58.184ZM46.04 56.408L45.5581 57.2842L45.567 57.2891L45.576 57.2938L46.04 56.408ZM37.64 55.88V54.88H36.64V55.88H37.64ZM37.64 83V84H38.64V83H37.64ZM24.728 83H23.728V84H24.728V83ZM24.728 13.592V12.592H23.728V13.592H24.728ZM57.992 15.08L57.7088 16.0391L57.7197 16.0422L57.992 15.08ZM66.296 19.16L65.6615 19.9329L65.6671 19.9375L66.296 19.16ZM71.096 25.496L70.1726 25.8798L70.1744 25.8841L71.096 25.496ZM71.576 40.184L70.6287 39.8634L70.6244 39.8766L71.576 40.184ZM68.6 45.848L67.809 45.2361L67.8018 45.2456L68.6 45.848ZM63.8 50.312L63.2453 49.4799L63.2388 49.4843L63.8 50.312ZM57.32 53.336L57.0303 52.3789L54.8196 53.0479L56.8203 54.2022L57.32 53.336ZM59.624 55.064L58.9335 55.7874L58.9423 55.7958L58.9513 55.8039L59.624 55.064ZM61.544 57.368L60.7028 57.9088L60.7094 57.919L60.7163 57.9291L61.544 57.368ZM45.704 47.616C48.2157 47.616 50.4411 47.3025 52.3613 46.651L51.7187 44.757C50.0549 45.3215 48.0563 45.616 45.704 45.616V47.616ZM52.3562 46.6527C54.2837 46.0102 55.9031 45.1154 57.1797 43.9452L55.8283 42.4708C54.8009 43.4126 53.4443 44.1818 51.7238 44.7553L52.3562 46.6527ZM57.1806 43.9443C58.4747 42.7552 59.4428 41.3486 60.0752 39.7324L58.2128 39.0036C57.6932 40.3313 56.9013 41.4848 55.8274 42.4717L57.1806 43.9443ZM60.0752 39.7324C60.7016 38.1318 61.008 36.3906 61.008 34.52H59.008C59.008 36.1694 58.7384 37.6602 58.2128 39.0036L60.0752 39.7324ZM61.008 34.52C61.008 30.756 59.7452 27.7418 57.1326 25.6303L55.8754 27.1857C57.9348 28.8502 59.008 31.244 59.008 34.52H61.008ZM57.1378 25.6345C54.5754 23.5347 50.7652 22.576 45.896 22.576V24.576C50.5628 24.576 53.8246 25.5053 55.8702 27.1815L57.1378 25.6345ZM45.896 22.576H37.64V24.576H45.896V22.576ZM36.64 23.576V46.616H38.64V23.576H36.64ZM37.64 47.616H45.704V45.616H37.64V47.616ZM78.92 82H67.256V84H78.92V82ZM67.256 82C65.3592 82 64.1148 81.2889 63.3233 79.9101L61.5887 80.9059C62.7812 82.9831 64.7368 84 67.256 84V82ZM63.2919 79.8591L48.6999 57.6351L47.0281 58.7329L61.6201 80.9569L63.2919 79.8591ZM48.701 57.6368C48.0917 56.7049 47.367 55.9742 46.504 55.5222L45.576 57.2938C46.057 57.5458 46.5483 57.9991 47.027 58.7312L48.701 57.6368ZM46.5219 55.5318C45.6613 55.0585 44.4989 54.88 43.16 54.88V56.88C44.3811 56.88 45.1387 57.0535 45.5581 57.2842L46.5219 55.5318ZM43.16 54.88H37.64V56.88H43.16V54.88ZM36.64 55.88V83H38.64V55.88H36.64ZM37.64 82H24.728V84H37.64V82ZM25.728 83V13.592H23.728V83H25.728ZM24.728 14.592H45.896V12.592H24.728V14.592ZM45.896 14.592C50.5347 14.592 54.4661 15.0817 57.7088 16.0391L58.2752 14.1209C54.7979 13.0943 50.6653 12.592 45.896 12.592V14.592ZM57.7197 16.0422C61.0138 16.9745 63.6486 18.2805 65.6615 19.9329L66.9305 18.3871C64.6554 16.5195 61.7542 15.1055 58.2643 14.1178L57.7197 16.0422ZM65.6671 19.9375C67.7202 21.5981 69.2156 23.5771 70.1726 25.8798L72.0194 25.1122C70.9284 22.4869 69.2238 20.2419 66.9249 18.3825L65.6671 19.9375ZM70.1744 25.8841C71.141 28.1798 71.632 30.7339 71.632 33.56H73.632C73.632 30.4981 73.099 27.6762 72.0176 25.1079L70.1744 25.8841ZM71.632 33.56C71.632 35.794 71.2957 37.8931 70.6288 39.8634L72.5232 40.5046C73.2643 38.3149 73.632 35.998 73.632 33.56H71.632ZM70.6244 39.8766C69.9873 41.8487 69.0489 43.6333 67.809 45.2361L69.391 46.4599C70.7751 44.6706 71.8207 42.6793 72.5276 40.4914L70.6244 39.8766ZM67.8018 45.2456C66.5951 46.8445 65.0799 48.2569 63.2453 49.4799L64.3547 51.144C66.3602 49.8071 68.0449 48.2435 69.3982 46.4504L67.8018 45.2456ZM63.2388 49.4843C61.4432 50.7017 59.3767 51.6688 57.0303 52.3789L57.6097 54.2931C60.1273 53.5312 62.3808 52.4823 64.3612 51.1397L63.2388 49.4843ZM56.8203 54.2022C57.5823 54.6418 58.2864 55.1697 58.9335 55.7874L60.3145 54.3406C59.5536 53.6143 58.7217 52.9902 57.8197 52.4698L56.8203 54.2022ZM58.9513 55.8039C59.5835 56.3787 60.1685 57.0776 60.7028 57.9088L62.3852 56.8272C61.7675 55.8664 61.0725 55.0293 60.2967 54.3241L58.9513 55.8039ZM60.7163 57.9291L78.0923 83.5611L79.7477 82.4389L62.3717 56.8069L60.7163 57.9291Z" fill="#1D3599"/>
</svg>
