<svg width="387" height="39" viewBox="0 0 387 39" fill="none" xmlns="http://www.w3.org/2000/svg">
<path fill-rule="evenodd" clip-rule="evenodd" d="M336 12.6667H335C334.448 12.6667 334 13.1144 334 13.6667V22.3334C334 22.8856 334.448 23.3334 335 23.3334H336C336.552 23.3334 337 22.8856 337 22.3334V13.6667C337 13.1144 336.552 12.6667 336 12.6667ZM330.333 15H331.333C331.886 15 332.333 15.4477 332.333 16V22.3334C332.333 22.8856 331.886 23.3334 331.333 23.3334H330.333C329.781 23.3334 329.333 22.8856 329.333 22.3334V16C329.333 15.4477 329.781 15 330.333 15ZM326.667 17.3334H325.667C325.114 17.3334 324.667 17.7811 324.667 18.3334V22.3334C324.667 22.8856 325.114 23.3334 325.667 23.3334H326.667C327.219 23.3334 327.667 22.8856 327.667 22.3334V18.3334C327.667 17.7811 327.219 17.3334 326.667 17.3334ZM322 19.3334H321C320.448 19.3334 320 19.7811 320 20.3334V22.3334C320 22.8856 320.448 23.3334 321 23.3334H322C322.552 23.3334 323 22.8856 323 22.3334V20.3334C323 19.7811 322.552 19.3334 322 19.3334Z" fill="#333E63"/>
<path fill-rule="evenodd" clip-rule="evenodd" d="M349.667 14.6152C351.892 14.6153 354.031 15.4694 355.644 17.001C355.765 17.1192 355.959 17.1177 356.079 16.9976L357.239 15.8273C357.3 15.7664 357.334 15.6839 357.333 15.598C357.333 15.5122 357.298 15.4301 357.237 15.3699C353.005 11.3176 346.329 11.3176 342.097 15.3699C342.035 15.43 342.001 15.5121 342 15.598C341.999 15.6838 342.033 15.7663 342.094 15.8273L343.255 16.9976C343.374 17.1179 343.568 17.1194 343.69 17.001C345.302 15.4693 347.442 14.6152 349.667 14.6152ZM351.895 21.2158C351.957 21.155 351.991 21.0714 351.989 20.9846C351.988 20.8978 351.95 20.8156 351.886 20.7574C350.605 19.6751 348.729 19.6751 347.449 20.7574C347.384 20.8156 347.347 20.8977 347.345 20.9845C347.343 21.0713 347.377 21.155 347.439 21.2158L349.445 23.2378C349.503 23.2972 349.583 23.3307 349.667 23.3307C349.751 23.3307 349.831 23.2972 349.89 23.2378L351.895 21.2158ZM352.974 19.6964C352.068 18.8766 350.889 18.4227 349.667 18.4227C348.446 18.4233 347.268 18.8772 346.362 19.6964C346.24 19.8127 346.047 19.8102 345.927 19.6907L344.768 18.5204C344.707 18.4591 344.673 18.3758 344.674 18.2893C344.675 18.2027 344.71 18.1201 344.773 18.0599C347.532 15.4955 351.805 15.4955 354.564 18.0599C354.626 18.1201 354.662 18.2027 354.663 18.2892C354.663 18.3757 354.63 18.459 354.569 18.5204L353.409 19.6907C353.29 19.8102 353.097 19.8127 352.974 19.6964Z" fill="#333E63"/>
<path opacity="0.4" d="M385.333 16V20C386.138 19.6612 386.661 18.8731 386.661 18C386.661 17.1269 386.138 16.3388 385.333 16Z" fill="#333E63"/>
<rect opacity="0.35" x="362.5" y="12.5" width="21" height="10" rx="2.16667" stroke="#333E63"/>
<rect x="364" y="14" width="18" height="7" rx="1.33333" fill="#333E63"/>
<path d="M35.8209 21.6084H35.9674C36.6412 21.6084 37.2028 21.5205 37.652 21.3447C38.1061 21.1641 38.4674 20.915 38.736 20.5977C39.0045 20.2803 39.1974 19.9067 39.3146 19.4771C39.4318 19.0474 39.4904 18.5811 39.4904 18.0781V16.2397C39.4904 15.8052 39.444 15.4243 39.3512 15.0972C39.2633 14.7651 39.1364 14.4893 38.9704 14.2695C38.8092 14.0449 38.6212 13.8765 38.4064 13.7642C38.1964 13.6519 37.9694 13.5957 37.7252 13.5957C37.4567 13.5957 37.215 13.6567 37.0001 13.7788C36.7902 13.896 36.612 14.0596 36.4655 14.2695C36.3239 14.4746 36.214 14.7163 36.1359 14.9946C36.0626 15.2681 36.026 15.561 36.026 15.8735C36.026 16.1665 36.0602 16.4497 36.1286 16.7231C36.2018 16.9917 36.3092 17.231 36.4508 17.4409C36.5924 17.6509 36.7706 17.8169 36.9855 17.939C37.2003 18.061 37.4518 18.1221 37.7399 18.1221C38.0133 18.1221 38.2648 18.0708 38.4943 17.9683C38.7238 17.8608 38.924 17.7168 39.0949 17.5361C39.2658 17.3555 39.4 17.1528 39.4977 16.9282C39.5954 16.7036 39.6491 16.4741 39.6588 16.2397L40.3327 16.4448C40.3327 16.8159 40.2545 17.1821 40.0983 17.5435C39.9469 17.8999 39.7345 18.2271 39.4611 18.5249C39.1925 18.8179 38.8776 19.0522 38.5162 19.228C38.1598 19.4038 37.7716 19.4917 37.3517 19.4917C36.8439 19.4917 36.3947 19.3965 36.004 19.2061C35.6183 19.0107 35.296 18.7471 35.0372 18.415C34.7833 18.083 34.5929 17.7021 34.466 17.2725C34.339 16.8428 34.2755 16.3911 34.2755 15.9175C34.2755 15.4048 34.3537 14.9238 34.5099 14.4746C34.6662 14.0254 34.8932 13.6299 35.1911 13.2881C35.4889 12.9414 35.8502 12.6729 36.275 12.4824C36.7047 12.2871 37.1906 12.1895 37.7326 12.1895C38.3087 12.1895 38.8141 12.3018 39.2487 12.5264C39.6832 12.751 40.0495 13.061 40.3473 13.4565C40.6452 13.8521 40.8698 14.311 41.0211 14.8335C41.1725 15.356 41.2482 15.9175 41.2482 16.5181V17.1406C41.2482 17.7705 41.192 18.3784 41.0797 18.9644C40.9674 19.5454 40.7843 20.085 40.5304 20.583C40.2814 21.0762 39.9518 21.5107 39.5416 21.8867C39.1364 22.2578 38.6383 22.5483 38.0475 22.7583C37.4616 22.9634 36.7731 23.0659 35.9821 23.0659H35.8209V21.6084ZM42.8099 22.1211C42.8099 21.8477 42.9027 21.6182 43.0883 21.4326C43.2738 21.2422 43.5253 21.147 43.8427 21.147C44.1649 21.147 44.4164 21.2422 44.597 21.4326C44.7826 21.6182 44.8754 21.8477 44.8754 22.1211C44.8754 22.3945 44.7826 22.624 44.597 22.8096C44.4164 22.9951 44.1649 23.0879 43.8427 23.0879C43.5253 23.0879 43.2738 22.9951 43.0883 22.8096C42.9027 22.624 42.8099 22.3945 42.8099 22.1211ZM42.8173 15.8809C42.8173 15.6074 42.91 15.3779 43.0956 15.1924C43.2811 15.002 43.5326 14.9067 43.85 14.9067C44.1722 14.9067 44.4237 15.002 44.6044 15.1924C44.7899 15.3779 44.8827 15.6074 44.8827 15.8809C44.8827 16.1543 44.7899 16.3838 44.6044 16.5693C44.4237 16.7549 44.1722 16.8477 43.85 16.8477C43.5326 16.8477 43.2811 16.7549 43.0956 16.5693C42.91 16.3838 42.8173 16.1543 42.8173 15.8809ZM53.7467 19.1987V20.605H46.0563L45.9977 19.543L50.5973 12.3359H52.0109L50.4801 14.958L47.8361 19.1987H53.7467ZM52.4137 12.3359V23H50.6486V12.3359H52.4137ZM59.5052 12.2993V23H57.7401V14.394L55.1254 15.2803V13.8228L59.2928 12.2993H59.5052Z" fill="#333E63"/>
</svg>
