<svg width="22" height="22" viewBox="0 0 22 22" fill="none" xmlns="http://www.w3.org/2000/svg">
<path d="M15.5833 18.3333C15.5833 16.8145 13.5313 15.5833 11 15.5833C8.46869 15.5833 6.41667 16.8145 6.41667 18.3333M19.25 15.5837C19.25 14.456 18.1187 13.4869 16.5 13.0625M2.75 15.5837C2.75 14.456 3.88125 13.4869 5.5 13.0625M16.5 9.38309C17.0626 8.87955 17.4167 8.14779 17.4167 7.33333C17.4167 5.81455 16.1855 4.58333 14.6667 4.58333C13.9623 4.58333 13.3199 4.84811 12.8333 5.28356M5.5 9.38309C4.9374 8.87955 4.58333 8.14779 4.58333 7.33333C4.58333 5.81455 5.81455 4.58333 7.33333 4.58333C8.03766 4.58333 8.68014 4.84811 9.16667 5.28356M11 12.8333C9.48122 12.8333 8.25 11.6021 8.25 10.0833C8.25 8.56454 9.48122 7.33333 11 7.33333C12.5188 7.33333 13.75 8.56454 13.75 10.0833C13.75 11.6021 12.5188 12.8333 11 12.8333Z" stroke="#989DB5" stroke-width="1.5" stroke-linecap="round" stroke-linejoin="round"/>
</svg>
