<svg width="23" height="22" viewBox="0 0 23 22" fill="none" xmlns="http://www.w3.org/2000/svg">
<path d="M8 18.3213C8 16.1763 9.45485 14.3493 11.432 14.0112L11.6101 13.9808C13.1934 13.7101 14.8066 13.7101 16.3899 13.9808L16.568 14.0112C18.5451 14.3493 20 16.1763 20 18.3213C20 19.2484 19.2984 20 18.433 20H9.56697C8.70156 20 8 19.2484 8 18.3213Z" stroke="#989DB5" stroke-width="1.5"/>
<path d="M17.5 7.5C17.5 9.433 15.933 11 14 11C12.067 11 10.5 9.433 10.5 7.5C10.5 5.567 12.067 4 14 4C15.933 4 17.5 5.567 17.5 7.5Z" stroke="#989DB5" stroke-width="1.5"/>
</svg>
